<svg xmlns="http://www.w3.org/2000/svg" width="24" height="24" viewBox="0 0 24 24">
    <g fill="none" fill-rule="evenodd">
        <path d="M0 0h24v24H0z"/>
        <path fill="#FFF" d="M13.686 18.708C15.91 17.82 18.683 17.25 22 17V5.506a.5.5 0 0 0-.513-.5C18.658 5.078 15.83 5.743 13 7v11.244a.5.5 0 0 0 .686.464z"/>
        <path fill="#FFF" d="M10.314 18.708C8.09 17.82 5.317 17.25 2 17V5.506a.5.5 0 0 1 .513-.5C5.342 5.078 8.17 5.743 11 7v11.244a.5.5 0 0 1-.686.464z" opacity=".44"/>
    </g>
</svg>
