<svg xmlns="http://www.w3.org/2000/svg" width="41" height="55" viewBox="0 0 41 55">
    <g fill="none" fill-rule="evenodd" stroke="#FFF" stroke-linecap="round" stroke-linejoin="round" stroke-width=".9" transform="rotate(-60 27.696 26.866)">
        <ellipse cx="39.849" cy="8.82" fill="#0663FF" fill-rule="nonzero" rx="6.05" ry="6.018"/>
        <path fill="#E2ECFC" fill-rule="nonzero" d="M45.055 5.75c-.723 4.253-4.426 7.367-8.763 7.367-.239 0-.472 0-.706-.03a6.075 6.075 0 0 0 7.983.479 5.996 5.996 0 0 0 1.486-7.816z"/>
        <path fill="#0663FF" fill-rule="nonzero" d="M.126 34.41l.06-22.857L19.969 22.98v22.857z"/>
        <path fill="#0663FF" fill-rule="nonzero" d="M19.999.125l9.888 5.715-9.918 5.713 9.918 5.714-9.918 5.713L.186 11.552z"/>
        <path fill="#E2ECFC" fill-rule="nonzero" d="M29.887 17.267v11.428l9.922-5.715.06 11.43-19.9 11.428V22.98z"/>
        <path fill="#FFF" fill-rule="nonzero" d="M29.887 5.84v11.427l-9.918-5.714z"/>
        <path fill="#0663FF" fill-rule="nonzero" d="M29.887 17.267l9.922 5.713-9.922 5.715z"/>
        <path fill="#4630EB" fill-rule="nonzero" d="M19.966 34.727L.126 23.3"/>
        <path d="M29.872 5.84l-19.81 11.427v22.868"/>
        <path fill="#4630EB" fill-rule="nonzero" d="M29.887 17.267L10.067 5.852"/>
    </g>
</svg>
