<?xml version="1.0" encoding="UTF-8"?>
<svg width="366px" height="441px" viewBox="0 0 366 441" version="1.1" xmlns="http://www.w3.org/2000/svg" xmlns:xlink="http://www.w3.org/1999/xlink">
    <!-- Generator: Sketch 48.1 (47250) - http://www.bohemiancoding.com/sketch -->
    <title>ill-auto-func</title>
    <desc>Created with Sketch.</desc>
    <defs>
        <linearGradient x1="50%" y1="100%" x2="50%" y2="3.061617e-15%" id="linearGradient-1">
            <stop stop-color="#FFFFFF" offset="0%"></stop>
            <stop stop-color="#3163E1" offset="100%"></stop>
        </linearGradient>
    </defs>
    <g id="Page-1" stroke="none" stroke-width="1" fill="none" fill-rule="evenodd">
        <g id="ill-auto-func" transform="translate(-7.000000, -7.000000)">
            <g id="Group-94-Copy-2" transform="translate(7.000000, 7.000000)">
                <g id="Group-94">
                    <g id="SMART-C.">
                        <g id="Group">
                            <g id="Mask" opacity="0.0460379464" fill="url(#linearGradient-1)" fill-rule="nonzero">
                                <ellipse id="path-2" cx="178.5" cy="179.25898" rx="178.5" ry="178.686403"></ellipse>
                            </g>
                            <g id="SMART-CONTRACT-Copy" opacity="0.161997768" transform="translate(96.005305, 91.850380)" fill-rule="nonzero">
                                <g id="Rectangle-20-Copy-2" transform="translate(0.000000, 17.000000)">
                                    <g id="path-4-link" fill="#000000">
                                        <path d="M-7.99360578e-15,0.5778469 L269.639745,0.5778469 L269.639745,327.005817 C269.639745,329.789333 267.38326,332.045817 264.599745,332.045817 L5.04,332.045817 C2.25648486,332.045817 -7.65272349e-15,329.789333 -7.99360578e-15,327.005817 L-7.99360578e-15,0.5778469 Z" id="path-4"></path>
                                    </g>
                                    <g id="path-4-link" fill="#3163E1">
                                        <path d="M-7.99360578e-15,0.5778469 L269.639745,0.5778469 L269.639745,327.005817 C269.639745,329.789333 267.38326,332.045817 264.599745,332.045817 L5.04,332.045817 C2.25648486,332.045817 -7.65272349e-15,329.789333 -7.99360578e-15,327.005817 L-7.99360578e-15,0.5778469 Z" id="path-4"></path>
                                    </g>
                                </g>
                                <path d="M31.6220159,57.1280025 L145.589945,57.1280025 C150.443933,57.1280025 154.378868,61.0629376 154.378868,65.916926 C154.378868,70.7709144 150.443933,74.7058494 145.589945,74.7058494 L31.6220159,74.7058494 L31.6220159,57.1280025 Z" id="Rectangle-14" fill="#00E2C2"></path>
                                <path d="M31.6220159,136.228314 L75.443172,136.228314 C80.2971604,136.228314 84.2320955,140.163249 84.2320955,145.017237 C84.2320955,149.871226 80.2971604,153.806161 75.443172,153.806161 L31.6220159,153.806161 L31.6220159,136.228314 Z" id="Rectangle-14-Copy-3" fill="#FFFFFF"></path>
                                <path d="M130.649447,284.549763 C124.739108,286.657355 115.62344,285.934594 108.970872,285.393903 L108.10219,285.327696 C106.854146,285.222868 105.078295,284.770453 103.197983,284.295969 C98.7611045,283.164931 94.1867767,282.00079 90.8879826,283.705622 C85.2635387,286.607699 83.5536638,296.704279 83.0808367,304.251886 C82.877411,303.904299 82.7344633,303.275332 82.8224311,302.116708 C82.9213949,300.891877 82.1956602,299.749805 81.0520783,299.319459 C80.1778979,298.99394 79.1992556,299.137389 78.462525,299.667046 C78.4845169,295.981518 78.4680229,292.290474 78.451529,288.604946 C78.429537,283.904243 78.4075451,279.214575 78.4735209,274.51939 C78.4900149,273.278007 77.6763124,272.180073 76.4942445,271.832486 C75.3066786,271.501451 74.0311449,271.981452 73.3823821,273.040765 C70.8313147,277.211811 67.6534764,281.15665 64.2942044,285.333213 C61.3747716,288.958051 58.3563751,292.709785 55.7503277,296.654624 C52.814401,301.10705 51.1155221,302.91671 50.2523376,303.644988 C49.5650888,301.399464 49.2956873,295.832552 49.0922617,291.606334 L48.9658079,289.051844 C48.8943341,287.727702 47.8991978,286.635286 46.5906762,286.458733 C44.0670987,286.105629 42.9015248,287.562185 42.4012077,288.180117 C42.23077,288.384256 42.1702921,288.467015 42.0823243,288.522187 C40.8177866,289.366328 40.4769112,291.082194 41.3181037,292.345646 C41.8624047,293.1622 42.808059,293.647719 43.6822394,293.575994 C44.1440706,302.800847 44.6388897,308.367759 48.6304305,309.465693 C51.8907387,310.353972 55.052083,307.711206 60.3356515,299.700149 C62.7987511,295.970484 65.7291798,292.323577 68.5716407,288.79805 C70.0286081,286.98839 71.5020695,285.156661 72.9315469,283.286311 C72.9370449,285.068385 72.9425429,286.850459 72.9535388,288.632532 C72.9810288,294.442204 73.0140167,300.246358 72.865571,306.044994 C72.8380811,307.264308 73.6077997,308.362242 74.7623776,308.737416 C75.9169555,309.112589 77.1814933,308.682243 77.87424,307.689137 C77.9896978,307.523619 78.1601355,307.336032 78.3690591,307.131894 C79.6500908,309.27259 81.7338291,309.912591 82.5970135,310.089143 C82.7014753,310.111213 82.8114351,310.133282 82.915897,310.149833 C82.9268929,311.446389 82.9598809,312.384322 82.9818728,312.798116 C83.0478487,314.166396 84.1034628,315.280882 85.4669644,315.418813 C86.9899076,315.429848 88.1005016,314.569156 88.3973931,313.322256 C88.8152404,311.589837 89.6344409,309.736039 90.7285409,307.965 C92.7902872,306.508444 94.4781702,304.461542 95.2478888,302.166363 C95.6492421,300.969118 95.1874109,299.650494 94.1262988,298.966354 C93.0706847,298.293249 91.6851912,298.414628 90.7615289,299.280838 C90.0907741,299.904288 89.4530072,300.577393 88.8427303,301.272567 C89.551971,295.038067 91.1024043,289.791156 93.4060621,288.599429 C94.8355395,287.860117 99.057996,288.924947 101.850975,289.636673 C103.962203,290.177364 105.957974,290.679435 107.673346,290.817366 L108.531033,290.88909 C115.67842,291.462885 125.481337,292.251853 132.496772,289.735984 C133.926249,289.222879 134.673976,287.644943 134.162663,286.210457 C133.656848,284.792522 132.084423,284.025623 130.649447,284.549763 Z" id="Shape" fill="#FFFFFF"></path>
                                <polygon id="Rectangle-14-Copy" fill-opacity="0.437641531" fill="#FFFFFF" points="31.6220159 96.6781581 189.452255 96.6781581 189.452255 114.256005 31.6220159 114.256005"></polygon>
                                <polygon id="Rectangle-14-Copy-5" fill="#F2AD22" points="31.6220159 175.778469 119.305482 175.778469 119.305482 193.356316 31.6220159 193.356316"></polygon>
                                <path d="M110.537135,136.228314 L211.352544,136.228314 C216.206533,136.228314 220.141468,140.163249 220.141468,145.017237 C220.141468,149.871226 216.206533,153.806161 211.352544,153.806161 L110.537135,153.806161 L110.537135,136.228314 Z" id="Rectangle-14-Copy-4" fill="#39C1D8"></path>
                                <polygon id="Rectangle-14-Copy-9" fill="#5F9AFF" points="196.448276 87.8892346 218.369142 87.8892346 218.369142 114.256005 196.448276 114.256005"></polygon>
                                <polygon id="Rectangle-14-Copy-6" fill="#A15FFF" points="141.226348 175.778469 158.763042 175.778469 158.763042 193.356316 141.226348 193.356316"></polygon>
                                <path d="M2.5088,0 L267.130945,4.4408921e-16 C268.516517,1.89563766e-16 269.639745,1.12322802 269.639745,2.5088 L269.639745,17.5778469 L0,17.5778469 L0,2.5088 C-1.69683629e-16,1.12322802 1.12322802,1.14270386e-15 2.5088,0 Z" id="Rectangle-14-Copy-8" fill="#BECCF1"></path>
                            </g>
                            <g id="SMART-CONTRACT" transform="translate(65.005305, 68.850380)">
                                <g id="Rectangle-20-Copy-2" transform="translate(0.000000, 17.000000)" fill-rule="nonzero">
                                    <g id="path-6-link" fill="#000000">
                                        <path d="M-7.99360578e-15,0.5778469 L269.639745,0.5778469 L269.639745,327.005817 C269.639745,329.789333 267.38326,332.045817 264.599745,332.045817 L5.04,332.045817 C2.25648486,332.045817 -7.65272349e-15,329.789333 -7.99360578e-15,327.005817 L-7.99360578e-15,0.5778469 Z" id="path-6"></path>
                                    </g>
                                    <g id="path-6-link" fill="#3163E1">
                                        <path d="M-7.99360578e-15,0.5778469 L269.639745,0.5778469 L269.639745,327.005817 C269.639745,329.789333 267.38326,332.045817 264.599745,332.045817 L5.04,332.045817 C2.25648486,332.045817 -7.65272349e-15,329.789333 -7.99360578e-15,327.005817 L-7.99360578e-15,0.5778469 Z" id="path-6"></path>
                                    </g>
                                </g>
                                <path d="M31.6220159,57.1280025 L145.589945,57.1280025 C150.443933,57.1280025 154.378868,61.0629376 154.378868,65.916926 C154.378868,70.7709144 150.443933,74.7058494 145.589945,74.7058494 L31.6220159,74.7058494 L31.6220159,57.1280025 Z" id="Rectangle-14" fill="#00E2C2" fill-rule="nonzero"></path>
                                <path d="M31.6220159,136.228314 L75.443172,136.228314 C80.2971604,136.228314 84.2320955,140.163249 84.2320955,145.017237 C84.2320955,149.871226 80.2971604,153.806161 75.443172,153.806161 L31.6220159,153.806161 L31.6220159,136.228314 Z" id="Rectangle-14-Copy-3" fill="#FFFFFF" fill-rule="nonzero"></path>
                                <path d="M130.649447,284.549763 C124.739108,286.657355 115.62344,285.934594 108.970872,285.393903 L108.10219,285.327696 C106.854146,285.222868 105.078295,284.770453 103.197983,284.295969 C98.7611045,283.164931 94.1867767,282.00079 90.8879826,283.705622 C85.2635387,286.607699 83.5536638,296.704279 83.0808367,304.251886 C82.877411,303.904299 82.7344633,303.275332 82.8224311,302.116708 C82.9213949,300.891877 82.1956602,299.749805 81.0520783,299.319459 C80.1778979,298.99394 79.1992556,299.137389 78.462525,299.667046 C78.4845169,295.981518 78.4680229,292.290474 78.451529,288.604946 C78.429537,283.904243 78.4075451,279.214575 78.4735209,274.51939 C78.4900149,273.278007 77.6763124,272.180073 76.4942445,271.832486 C75.3066786,271.501451 74.0311449,271.981452 73.3823821,273.040765 C70.8313147,277.211811 67.6534764,281.15665 64.2942044,285.333213 C61.3747716,288.958051 58.3563751,292.709785 55.7503277,296.654624 C52.814401,301.10705 51.1155221,302.91671 50.2523376,303.644988 C49.5650888,301.399464 49.2956873,295.832552 49.0922617,291.606334 L48.9658079,289.051844 C48.8943341,287.727702 47.8991978,286.635286 46.5906762,286.458733 C44.0670987,286.105629 42.9015248,287.562185 42.4012077,288.180117 C42.23077,288.384256 42.1702921,288.467015 42.0823243,288.522187 C40.8177866,289.366328 40.4769112,291.082194 41.3181037,292.345646 C41.8624047,293.1622 42.808059,293.647719 43.6822394,293.575994 C44.1440706,302.800847 44.6388897,308.367759 48.6304305,309.465693 C51.8907387,310.353972 55.052083,307.711206 60.3356515,299.700149 C62.7987511,295.970484 65.7291798,292.323577 68.5716407,288.79805 C70.0286081,286.98839 71.5020695,285.156661 72.9315469,283.286311 C72.9370449,285.068385 72.9425429,286.850459 72.9535388,288.632532 C72.9810288,294.442204 73.0140167,300.246358 72.865571,306.044994 C72.8380811,307.264308 73.6077997,308.362242 74.7623776,308.737416 C75.9169555,309.112589 77.1814933,308.682243 77.87424,307.689137 C77.9896978,307.523619 78.1601355,307.336032 78.3690591,307.131894 C79.6500908,309.27259 81.7338291,309.912591 82.5970135,310.089143 C82.7014753,310.111213 82.8114351,310.133282 82.915897,310.149833 C82.9268929,311.446389 82.9598809,312.384322 82.9818728,312.798116 C83.0478487,314.166396 84.1034628,315.280882 85.4669644,315.418813 C86.9899076,315.429848 88.1005016,314.569156 88.3973931,313.322256 C88.8152404,311.589837 89.6344409,309.736039 90.7285409,307.965 C92.7902872,306.508444 94.4781702,304.461542 95.2478888,302.166363 C95.6492421,300.969118 95.1874109,299.650494 94.1262988,298.966354 C93.0706847,298.293249 91.6851912,298.414628 90.7615289,299.280838 C90.0907741,299.904288 89.4530072,300.577393 88.8427303,301.272567 C89.551971,295.038067 91.1024043,289.791156 93.4060621,288.599429 C94.8355395,287.860117 99.057996,288.924947 101.850975,289.636673 C103.962203,290.177364 105.957974,290.679435 107.673346,290.817366 L108.531033,290.88909 C115.67842,291.462885 125.481337,292.251853 132.496772,289.735984 C133.926249,289.222879 134.673976,287.644943 134.162663,286.210457 C133.656848,284.792522 132.084423,284.025623 130.649447,284.549763 Z" id="Shape" fill="#FFFFFF" fill-rule="nonzero"></path>
                                <polygon id="Rectangle-14-Copy" fill-opacity="0.437641531" fill="#FFFFFF" fill-rule="nonzero" points="31.6220159 96.6781581 189.452255 96.6781581 189.452255 114.256005 31.6220159 114.256005"></polygon>
                                <polygon id="Rectangle-14-Copy-5" fill="#F2AD22" fill-rule="nonzero" points="31.6220159 175.778469 119.305482 175.778469 119.305482 193.356316 31.6220159 193.356316"></polygon>
                                <path d="M110.537135,136.228314 L211.352544,136.228314 C216.206533,136.228314 220.141468,140.163249 220.141468,145.017237 C220.141468,149.871226 216.206533,153.806161 211.352544,153.806161 L110.537135,153.806161 L110.537135,136.228314 Z" id="Rectangle-14-Copy-4" fill="#39C1D8" fill-rule="nonzero"></path>
                                <polygon id="Rectangle-14-Copy-2" fill="#FFC264" fill-rule="nonzero" points="220.328028 87.8892346 242.248895 87.8892346 242.248895 114.256005 220.328028 114.256005"></polygon>
                                <polygon id="Rectangle-14-Copy-9" fill="#5F9AFF" fill-rule="nonzero" points="196.448276 87.8892346 218.369142 87.8892346 218.369142 114.256005 196.448276 114.256005"></polygon>
                                <polygon id="Rectangle-14-Copy-6" fill="#A15FFF" fill-rule="nonzero" points="141.226348 175.778469 158.763042 175.778469 158.763042 193.356316 141.226348 193.356316"></polygon>
                                <path d="M2.5088,0 L267.130945,4.4408921e-16 C268.516517,1.89563766e-16 269.639745,1.12322802 269.639745,2.5088 L269.639745,17.5778469 L0,17.5778469 L0,2.5088 C-1.69683629e-16,1.12322802 1.12322802,1.14270386e-15 2.5088,0 Z" id="Rectangle-14-Copy-8" fill="#BECCF1" fill-rule="nonzero"></path>
                                <ellipse id="Oval-3" stroke="#FFFFFF" stroke-width="8.7808" cx="209.227675" cy="289.585052" rx="30.6892131" ry="30.7612321"></ellipse>
                            </g>
                        </g>
                    </g>
                </g>
            </g>
            <rect id="noise-layer" style="mix-blend-mode: overlay;" fill-rule="nonzero" x="0" y="0" width="391" height="472"></rect>
        </g>
    </g>
</svg>