<?xml version="1.0" encoding="UTF-8"?>
<svg width="60px" height="60px" viewBox="0 0 60 60" version="1.1" xmlns="http://www.w3.org/2000/svg" xmlns:xlink="http://www.w3.org/1999/xlink">
    <!-- Generator: Sketch 51.3 (57544) - http://www.bohemiancoding.com/sketch -->
    <title>Censorship</title>
    <desc>Created with Sketch.</desc>
    <defs>
        <linearGradient x1="136.963839%" y1="96.4162545%" x2="12.4575396%" y2="42.1334295%" id="linearGradient-1">
            <stop stop-color="#9CAFC9" offset="0%"></stop>
            <stop stop-color="#A9BFDA" offset="100%"></stop>
        </linearGradient>
        <path d="M25.0371612,60.7864782 C47.4699509,59.5630128 60.8678391,49.527396 59.8740113,27.1249791 C58.8801834,4.72256226 50.4569008,0.537675502 28.6416531,0.537675502 C17.1242072,0.537675502 14.607254,4.71713065 11.1256612,8.99926895 C8.01275307,12.8279486 -0.276606055,16.7933994 0.0362419523,27.4734008 C0.331055622,37.5377462 1.6277683,42.8063702 5.24064773,47.6458097 C10.535289,54.7379633 11.0040551,54.0545412 14.3059735,56.3469403 C17.6078918,58.6393394 18.9276288,61.1196869 25.0371612,60.7864782 Z" id="path-2"></path>
        <linearGradient x1="79.1482445%" y1="28.7862739%" x2="4.81883683%" y2="57.0492278%" id="linearGradient-4">
            <stop stop-color="#FFFFFF" offset="0%"></stop>
            <stop stop-color="#BFCDDF" offset="100%"></stop>
        </linearGradient>
    </defs>
    <g id="Page-1" stroke="none" stroke-width="1" fill="none" fill-rule="evenodd">
        <g id="Artboard-2" transform="translate(-554.000000, -1536.000000)">
            <g id="Censorship" transform="translate(554.000000, 1535.000000)">
                <g id="Mask">
                    <circle id="path-2" fill="url(#linearGradient-1)" fill-rule="nonzero" cx="30" cy="31" r="30"></circle>
                    <mask id="mask-3" fill="white">
                        <use xlink:href="#path-2"></use>
                    </mask>
                    <g id="path-2"></g>
                    <g id="Censor" mask="url(#mask-3)" fill-rule="nonzero">
                        <g transform="translate(0.000000, 3.000000)" id="Shape">
                            <path d="M5.94527638,31.1621016 C3.09089728,29.4723681 2.15090095,25.7925549 3.83754477,22.9449986 C5.5272455,20.0920925 9.20469456,19.149021 12.0590737,20.8395188 C14.9081032,22.5269596 15.8503922,26.2067728 14.1606915,29.0589145 C12.4740477,31.9064709 8.79277747,32.8503067 5.94527638,31.1621016 Z" fill="url(#linearGradient-4)"></path>
                            <path d="M33.06584,33.8833636 C33.03336,33.8549659 29.7484,31.0987159 27.1556,30.1799659 C24.25816,29.1531932 17.224,28.9460568 17.15288,28.9438295 L17.15288,28.9438295 C16.7085128,28.9311169 16.35488,28.5672225 16.35488,28.1226735 L16.35488,24.75544 C16.35488,24.3133177 16.7048818,23.9505388 17.14672,23.9346932 C17.21672,23.9324659 24.15344,23.6752159 27.17632,22.691875 C29.76968,21.846625 33.02384,19.0319091 33.05632,19.0029545 L33.05632,19.0029545 C33.3992499,18.7048586 33.9189039,18.7412037 34.2169999,19.0841335 C34.3471343,19.2338403 34.4188,19.425523 34.4188,19.623884 L34.4188,33.2542839 C34.4188,33.7086652 34.0504511,34.0770141 33.5960698,34.0770141 C33.4020199,34.0770141 33.2142153,34.0084241 33.06584,33.8833636 Z M17.99624,27.3413068 C19.98648,27.4287273 25.14912,27.7349773 27.70664,28.6420341 C29.49752,29.2768068 31.49112,30.6226364 32.77576,31.5770227 L32.77576,21.3248864 C31.49,22.2982045 29.49528,23.6535 27.68648,24.2426136 C25.04888,25.1012273 19.96184,25.4314205 17.99624,25.5305341 L17.99624,27.3413068 Z" fill="url(#linearGradient-4)"></path>
                            <path d="M59,36.2210227 L54.79216,34.6958977 L54.79216,6.72970455 C54.79216,5.38554545 53.69568,4.29473864 52.3444,4.29473864 C51.95576,4.29473864 51.60128,4.41 51.27312,4.57092045 L51.27312,20.5465909 L50.08424,20.5465909 L50.08424,5.80594318 C50.0827467,5.81076894 50.0788267,4.83930682 50.07248,2.89155682 C50.07248,1.54628409 48.97936,0.456590909 47.62808,0.456590909 C46.27568,0.456590909 45.1792,1.54684091 45.1792,2.89155682 L45.1792,4.82427273 C46.28856,5.2675 47.06472,6.327125 47.06472,7.56548864 L47.06472,20.5482614 L45.87976,20.5482614 L45.87976,7.60557955 C45.87976,6.54985227 45.01512,5.69290909 43.95112,5.69290909 C42.8888,5.69290909 42.0264,6.54985227 42.0264,7.60557955 L42.0264,26.8597955 L40.6208,26.8636932 L40.63144,20.7030568 C40.6292,19.4630227 39.61392,18.4574091 38.3668,18.4473864 C37.99216,18.4529545 37.6248,18.5453864 37.3056,18.7218977 C36.96288,18.907875 36.68008,19.1718068 36.46504,19.4852955 C36.2388,19.8544659 36.1184,20.2659545 36.12232,20.6941477 L36.0876,31.8277273 C36.0876,31.8277273 36.19344,33.7571023 36.40008,34.5973409 C37.06312,38.1114205 40.00928,39.5680568 40.00928,39.5680568 L59,48.7021023 L59,36.2210227 Z" fill="#0172EF"></path>
                            <path d="M24.4822982,32.2130693 C23.199599,31.6528825 21.7076984,32.2357435 21.1471462,33.5108353 L18.3497489,39.8702891 C18.3497489,39.8702891 10.1251862,33.3074342 9.7946213,33.0760237 C8.58836105,32.1337095 6.09806058,31.7362436 4.25145651,33.0433461 C-0.262464538,36.3957972 -0.68354927,45.0820268 0.696374901,51 L13.8983965,53.1632492 L11.9020565,41.5001658 L17.9333577,45.988329 C18.3524309,46.2677555 18.8398968,46.4224737 19.3394321,46.4224737 C19.5392462,46.4224737 19.7410718,46.3991326 19.9395449,46.3511166 C20.7066164,46.1643877 21.3429371,45.6328771 21.6587507,44.9133039 L25.7877949,35.5295084 C26.3470062,34.2550835 25.7629858,32.7705885 24.4822982,32.2130693 Z" fill="url(#linearGradient-4)"></path>
                        </g>
                    </g>
                </g>
            </g>
        </g>
    </g>
</svg>