<?xml version="1.0" encoding="UTF-8"?>
<svg width="371px" height="526px" viewBox="0 0 371 526" version="1.1" xmlns="http://www.w3.org/2000/svg" xmlns:xlink="http://www.w3.org/1999/xlink">
    <!-- Generator: Sketch 48.1 (47250) - http://www.bohemiancoding.com/sketch -->
    <title>ill-d-owner</title>
    <desc>Created with Sketch.</desc>
    <defs>
        <rect id="path-1" x="0" y="0" width="369" height="523" rx="4"></rect>
        <rect id="path-3" x="0" y="0" width="369" height="523" rx="4"></rect>
        <rect id="path-5" x="0" y="0" width="369" height="523" rx="4"></rect>
        <rect id="path-7" x="0" y="0" width="369" height="523" rx="4"></rect>
        <rect id="path-9" x="0" y="0" width="369" height="523" rx="4"></rect>
        <rect id="path-11" x="0" y="0" width="369" height="523" rx="4"></rect>
        <rect id="path-13" x="0" y="0" width="369" height="523" rx="4"></rect>
        <rect id="path-15" x="0" y="0" width="369" height="523" rx="4"></rect>
        <rect id="path-17" x="0" y="0" width="369" height="523" rx="4"></rect>
        <ellipse id="path-19" cx="25.4381933" cy="25.391183" rx="25.4381933" ry="25.391183"></ellipse>
        <ellipse id="path-21" cx="25.4381933" cy="25.391183" rx="25.4381933" ry="25.391183"></ellipse>
        <ellipse id="path-23" cx="25.4381933" cy="25.391183" rx="25.4381933" ry="25.391183"></ellipse>
        <ellipse id="path-25" cx="25.4381933" cy="25.391183" rx="25.4381933" ry="25.391183"></ellipse>
        <rect id="path-27" x="0" y="0" width="369" height="523" rx="4"></rect>
        <rect id="path-29" x="0" y="0" width="369" height="523" rx="4"></rect>
        <rect id="path-31" x="0" y="0" width="369" height="523" rx="4"></rect>
        <path d="M23.7002092,1.2643058 C23.7002092,1.2643058 0.608177496,41.1885848 0.608177496,41.1885848 C-0.292393027,42.7447433 0.831565769,44.690817 2.63270681,44.690817 C2.63270681,44.690817 48.8191094,44.690817 48.8191094,44.690817 C50.6190808,44.690817 51.7453788,42.7447433 50.8448082,41.1885848 C50.8448082,41.1885848 27.7527765,1.2643058 27.7527765,1.2643058 C26.8510365,-0.291852679 24.6019493,-0.291852679 23.7002092,1.2643058 Z" id="path-33"></path>
        <path d="M23.7002092,1.2643058 C23.7002092,1.2643058 0.608177496,41.1885848 0.608177496,41.1885848 C-0.292393027,42.7447433 0.831565769,44.690817 2.63270681,44.690817 C2.63270681,44.690817 48.8191094,44.690817 48.8191094,44.690817 C50.6190808,44.690817 51.7453788,42.7447433 50.8448082,41.1885848 C50.8448082,41.1885848 27.7527765,1.2643058 27.7527765,1.2643058 C26.8510365,-0.291852679 24.6019493,-0.291852679 23.7002092,1.2643058 Z" id="path-35"></path>
        <path d="M23.7002092,1.2643058 C23.7002092,1.2643058 0.608177496,41.1885848 0.608177496,41.1885848 C-0.292393027,42.7447433 0.831565769,44.690817 2.63270681,44.690817 C2.63270681,44.690817 48.8191094,44.690817 48.8191094,44.690817 C50.6190808,44.690817 51.7453788,42.7447433 50.8448082,41.1885848 C50.8448082,41.1885848 27.7527765,1.2643058 27.7527765,1.2643058 C26.8510365,-0.291852679 24.6019493,-0.291852679 23.7002092,1.2643058 Z" id="path-37"></path>
        <rect id="path-39" x="0" y="0" width="369" height="523" rx="4"></rect>
        <path d="M0,0 L365,0 C367.209139,-4.05812251e-16 369,1.790861 369,4 L369,519 C369,521.209139 367.209139,523 365,523 L4,523 C1.790861,523 2.705415e-16,521.209139 0,519 L0,0 Z" id="path-41"></path>
    </defs>
    <g id="Page-1" stroke="none" stroke-width="1" fill="none" fill-rule="evenodd">
        <g id="ill-d-owner" transform="translate(1.000000, 1.000000)">
            <g id="Rectangle-2" fill-rule="nonzero" stroke="#979797" stroke-opacity="0.148295969">
                <rect id="path-1" x="0" y="0" width="369" height="524" rx="4"></rect>
            </g>
            <g>
                <g id="Rectangle-94" transform="translate(0.000000, 0.500000)">
                    <g id="path-1-link">
                        <rect id="path-1" x="0" y="0" width="369" height="523" rx="4"></rect>
                    </g>
                    <rect id="Rectangle-path" fill="#FFFFFF" fill-rule="nonzero" x="0.3536379" y="0.3536379" width="368.292724" height="522.292724" rx="4"></rect>
                </g>
                <g id="Detail-Clipped" transform="translate(0.000000, 0.500000)">
                    <g>
                        <mask id="mask-2" fill="white">
                            <use xlink:href="#path-1"></use>
                        </mask>
                        <g id="path-3"></g>
                        <path d="M-3.64959911,72.9631696 C7.50267458,72.9631696 138.404479,72.9631696 138.404479,72.9631696 C138.404479,72.9631696 142.254004,57.6612067 115.281434,62.761861 C88.3088634,67.8625153 92.5307956,53.4715253 76.3878794,50.1491536 C60.2449632,46.8267819 52.5080734,60.3657279 27.8993866,53.4715253 C3.29069978,46.5773227 -14.8018728,72.9631696 -3.64959911,72.9631696 Z" id="Detail" fill="#F2F5F9" fill-rule="nonzero" opacity="0.586383929" mask="url(#mask-2)"></path>
                    </g>
                </g>
                <g id="Detail-Clipped" transform="translate(0.000000, 0.500000)">
                    <g>
                        <mask id="mask-4" fill="white">
                            <use xlink:href="#path-3"></use>
                        </mask>
                        <g id="path-5"></g>
                        <path d="M270.978126,48.4475446 C277.146943,48.4475446 314.572976,48.4475446 343.911543,48.4475446 C367.643824,48.4475446 359.718255,27.4341518 345.746357,27.4341518 C326.185174,27.4341518 323.438672,36.8443709 300.450092,30.4943014 C277.461512,24.1442319 260.560059,48.4475446 270.978126,48.4475446 Z" id="Detail" fill="#F2F5F9" fill-rule="nonzero" opacity="0.586383929" mask="url(#mask-4)"></path>
                    </g>
                </g>
                <g id="Park-Clipped" transform="translate(0.000000, 0.500000)">
                    <g>
                        <mask id="mask-6" fill="white">
                            <use xlink:href="#path-5"></use>
                        </mask>
                        <g id="path-7"></g>
                        <g id="Park" opacity="0.436997768" mask="url(#mask-6)">
                            <g transform="translate(230.000000, 72.000000)" id="Detail" opacity="0.471372768">
                                <g>
                                    <g id="Group" transform="translate(0.405705, 0.379464)" fill="#B6C5D9" fill-rule="nonzero">
                                        <path d="M39.5551562,3.08999201 C39.8958438,3.51887329 39.8139272,4.13469462 39.3721904,4.46546746 C38.9304536,4.79624029 38.2961733,4.71670768 37.9554857,4.2878264 C35.4772883,1.1680989 32.8101065,1.1680989 29.3548084,4.39562864 C28.9573559,4.76688164 28.3266573,4.75996503 27.9379433,4.38009049 C24.6501719,1.16708362 21.9806648,1.16708362 19.3358412,4.30945621 C18.9828497,4.7288531 18.3465142,4.79101309 17.9145461,4.44829444 C17.482578,4.10557579 17.4185548,3.48775908 17.7715463,3.0683622 C21.0087909,-0.777878745 24.8070693,-0.997531769 28.6687988,2.35019236 C32.6819799,-0.999048136 36.4788393,-0.782689865 39.5551562,3.08999201 Z" id="Shape"></path>
                                        <path d="M22.0115746,14.1803938 C22.3522622,14.6092751 22.2703456,15.2250964 21.8286088,15.5558692 C21.386872,15.8866421 20.7525917,15.8071095 20.4119041,15.3782282 C17.9337067,12.2585007 15.2665248,12.2585007 11.8112268,15.4860304 C11.4137743,15.8572834 10.7830757,15.8503668 10.3943617,15.4704923 C7.10659025,12.2574854 4.43708321,12.2574854 1.79225961,15.399858 C1.43926812,15.8192549 0.802932633,15.8814149 0.370964514,15.5386962 C-0.0610036052,15.1959776 -0.125026815,14.5781609 0.227964673,14.158764 C3.46520932,10.312523 7.26348768,10.09287 11.1252172,13.4405941 C15.1383983,10.0913536 18.9352577,10.3077119 22.0115746,14.1803938 Z" id="Shape"></path>
                                    </g>
                                </g>
                            </g>
                        </g>
                    </g>
                </g>
                <g id="sector-Clipped" transform="translate(0.000000, 0.500000)">
                    <g>
                        <mask id="mask-8" fill="white">
                            <use xlink:href="#path-7"></use>
                        </mask>
                        <g id="path-9"></g>
                        <g id="sector" mask="url(#mask-8)">
                            <g transform="translate(205.000000, 132.000000)" id="Group">
                                <g>
                                    <g transform="translate(0.259905, 0.501116)" fill="#C0E9FF" fill-rule="nonzero" id="Shape">
                                        <g>
                                            <path d="M35.0880866,0.128998884 C35.0880866,0.128998884 35.0880866,0.128998884 35.0880866,0.128998884 C15.7578297,0.128998884 0.0886412545,15.6956703 0.0886412545,34.8974085 C0.0886412545,34.8974085 0.0886412545,36.3980316 0.0886412545,36.3980316 C0.0886412545,37.2272267 0.76453082,37.1492604 1.59831262,37.1492604 C1.59831262,37.1492604 68.5760138,37.1492604 68.5760138,37.1492604 C69.4097956,37.1492604 70.0856852,37.2272267 70.0856852,36.3980316 C70.0856852,36.3980316 70.0856852,34.8974085 70.0856852,34.8974085 C70.0856852,15.6956703 54.4174201,0.128998884 35.0880866,0.128998884 Z"></path>
                                        </g>
                                    </g>
                                </g>
                            </g>
                        </g>
                    </g>
                </g>
                <g id="Ellcrys-Globe-Clipped" transform="translate(0.000000, 0.500000)">
                    <g>
                        <mask id="mask-10" fill="white">
                            <use xlink:href="#path-9"></use>
                        </mask>
                        <g id="path-11"></g>
                        <g id="Ellcrys-Globe" opacity="0.703069196" mask="url(#mask-10)">
                            <g transform="translate(-92.000000, 340.000000)" id="Globe" opacity="0.979185268">
                                <g>
                                    <g id="Group" transform="translate(291.974642, 290.300223) scale(-1, 1) translate(-291.974642, -290.300223) translate(0.974642, 0.300223)" stroke="#DAE0EF" stroke-width="0.69984">
                                        <g transform="translate(291.266667, 290.000000) scale(-1, 1) translate(-291.266667, -290.000000) translate(0.766667, 0.000000)" id="Shape">
                                            <path d="M556.92695,174.771934 C620.497134,321.627893 552.979782,492.146862 405.999702,555.663361 C259.019622,619.179861 88.356532,551.719527 24.7863488,404.863567 C-38.7838343,258.007608 28.7335171,87.4886391 175.713597,23.9721394 C322.693678,-39.5443603 493.356767,27.9159744 556.92695,174.771934 Z M252.891124,201.963638 C105.911043,265.480137 3.90790634,356.292126 24.8902217,404.863567 C45.872537,453.435008 182.049841,441.188363 328.926048,377.671863 C475.802256,314.155363 577.909266,223.343375 556.92695,174.875719 C535.944635,126.408063 399.871204,138.447138 252.891124,201.963638 Z M203.447648,87.7999945 C77.2421372,142.390973 -10.4265467,220.437391 7.54345603,262.055228 C25.5134588,303.673065 142.474286,293.190767 268.783669,238.703574 C395.093053,184.21638 482.657864,106.066177 464.687861,64.4483402 C446.613986,22.830503 329.653158,33.3128011 203.447648,87.7999945 Z M178.310419,29.7841067 C103.418095,62.1650673 51.377798,108.453235 62.0767014,133.154096 C72.7756047,157.854957 142.162667,151.62785 217.158864,119.246889 C292.15506,86.8659283 344.091484,40.5777603 333.392581,15.8768993 C322.589805,-8.82396172 253.202742,-2.5968539 178.310419,29.7841067 Z M574.273716,317.476488 C556.19984,275.85865 439.342886,286.340949 313.033503,340.828142 C186.724119,395.315335 99.159308,473.465538 117.233184,515.083376 C135.307059,556.701213 252.164014,546.218915 378.473397,491.731721 C504.782781,437.244528 592.243719,359.19811 574.273716,317.476488 Z M519.844344,446.377619 C509.14544,421.676758 439.758378,427.903866 364.762181,460.284827 C289.765985,492.665787 237.725688,538.953955 248.528464,563.654816 C259.33124,588.355677 328.61443,582.12857 403.610626,549.747609 C478.606823,517.366648 530.543247,471.07848 519.844344,446.377619 Z M397.17051,535.113906 C397.17051,535.113906 544.773827,492.146862 574.06597,352.244506 C603.358114,212.342151 472.582198,-36.949732 185.166027,45.6632316 L397.17051,535.113906 Z M185.166027,45.6632316 C-71.8154,198.434943 20.6314349,464.228662 142.682032,538.6426 C264.732628,613.056538 397.17051,535.010121 397.17051,535.010121 L185.166027,45.6632316 Z M185.166027,45.6632316 C185.166027,45.6632316 37.3549635,88.1113499 8.06282027,228.013705 C-21.2293229,367.916061 109.754339,617.726869 397.17051,535.113906 C397.17051,535.113906 451.184391,532.415492 496.36908,492.873358 C541.553769,453.331223 561.912847,332.421546 461.156184,189.924563 C360.399522,47.4275789 216.431754,32.1711647 185.166027,45.6632316 Z M101.548384,345.394688 C136.553534,516.225012 238.660543,584.308057 298.491304,578.392305 C358.322065,572.476553 397.17051,535.010121 397.17051,535.010121 C654.151936,382.342194 561.497356,115.925765 439.446759,41.4080413 C317.396162,-33.1096822 185.166027,45.6632316 185.166027,45.6632316 C153.900299,59.1552986 66.5432338,174.564363 101.548384,345.394688 Z M397.17051,535.113906 C410.67398,516.951508 407.350049,384.417897 336.924258,205.907473 C266.498467,27.3970487 219.236321,6.12109703 199.292734,14.7352628 C179.349147,23.3494286 185.166027,45.6632316 185.166027,45.6632316 L397.17051,535.113906 Z M185.166027,45.6632316 C185.166027,45.6632316 172.90903,26.1516272 152.965444,34.765793 C133.021857,43.3799588 116.090582,92.2627551 198.254005,265.791493 C280.417428,439.320231 374.733975,532.519277 397.17051,535.010121 L185.166027,45.6632316 Z M397.17051,535.113906 C397.17051,535.113906 488.682489,485.712184 477.256476,293.917263 C465.72659,102.018557 356.971718,-5.71040781 285.299452,1.03562565 C213.627187,7.78165912 185.166027,45.6632316 185.166027,45.6632316 C171.662556,63.8256294 174.467123,195.113819 244.892914,373.728028 C315.318705,552.342237 362.580851,573.410619 382.524438,564.796453 C402.468025,556.182287 397.17051,535.113906 397.17051,535.113906 Z M397.17051,535.113906 C397.17051,535.113906 408.908142,553.483874 428.955601,544.765923 C448.899188,536.151757 465.830462,487.268961 383.66704,313.740223 C301.503617,140.211485 207.706435,48.2578599 185.166027,45.6632316 C185.166027,45.6632316 138.007753,40.37019 84.0977452,88.0075648 C30.1877369,135.64494 34.238778,288.624221 166.365041,428.215222 C298.491304,567.806222 397.17051,535.113906 397.17051,535.113906 Z"></path>
                                        </g>
                                    </g>
                                </g>
                            </g>
                        </g>
                    </g>
                </g>
                <g id="Rec-Clipped" transform="translate(0.000000, 0.500000)">
                    <g>
                        <mask id="mask-12" fill="white">
                            <use xlink:href="#path-11"></use>
                        </mask>
                        <g id="path-13"></g>
                        <g id="Rec" mask="url(#mask-12)">
                            <g transform="translate(292.000000, 127.000000)" id="Group">
                                <g>
                                    <g transform="translate(0.393027, 0.831473)" fill="#BF80FF" fill-rule="nonzero" id="Shape">
                                        <g transform="translate(0.394146, 0.541679)">
                                            <path d="M15.8921458,76.7152277 C15.8921458,76.7152277 2.82100792,76.7152277 2.82100792,76.7152277 C1.52980032,76.7152277 0.481863708,75.6703951 0.481863708,74.3804062 C0.481863708,74.3804062 0.481863708,2.6698683 0.481863708,2.6698683 C0.481863708,1.37987946 1.52980032,0.333879464 2.82100792,0.333879464 C2.82100792,0.333879464 15.8921458,0.333879464 15.8921458,0.333879464 C17.184523,0.333879464 18.23129,1.37987946 18.23129,2.6698683 C18.23129,2.6698683 18.23129,74.3804062 18.23129,74.3804062 C18.23129,75.6703951 17.184523,76.7152277 15.8921458,76.7152277 Z"></path>
                                        </g>
                                    </g>
                                </g>
                            </g>
                        </g>
                    </g>
                </g>
                <g id="Rec2-Clipped" transform="translate(0.000000, 0.500000)">
                    <g>
                        <mask id="mask-14" fill="white">
                            <use xlink:href="#path-13"></use>
                        </mask>
                        <g id="path-15"></g>
                        <g id="Rec2" mask="url(#mask-14)">
                            <g transform="translate(155.000000, 131.000000)" id="Group">
                                <g>
                                    <g transform="translate(0.553090, 0.917411)" fill-rule="nonzero" id="Shape">
                                        <g transform="translate(0.152044, 0.270839)" fill="#FFA435">
                                            <path d="M32.0228843,51.345058 C32.0228843,51.345058 3.06427892,51.345058 3.06427892,51.345058 C1.77307132,51.345058 0.725134707,50.299058 0.725134707,49.0102366 C0.725134707,49.0102366 0.725134707,2.35583482 0.725134707,2.35583482 C0.725134707,1.06584598 1.77307132,0.0210133929 3.06427892,0.0210133929 C3.06427892,0.0210133929 32.0228843,0.0210133929 32.0228843,0.0210133929 C33.3140919,0.0210133929 34.3620285,1.06584598 34.3620285,2.35583482 C34.3620285,2.35583482 34.3620285,49.0102366 34.3620285,49.0102366 C34.3620285,50.299058 33.3140919,51.345058 32.0228843,51.345058 Z"></path>
                                        </g>
                                        <g opacity="0.3" style="mix-blend-mode: color-dodge;" transform="translate(16.564445, 24.223241) scale(-1, 1) translate(-16.564445, -24.223241) translate(3.564445, 8.223241)" fill="#FF5C61">
                                            <path d="M0.553207607,29.3837277 C0.553207607,30.6737165 1.60114422,31.7185491 2.89235182,31.7185491 C2.89235182,31.7185491 25.1727005,31.7185491 25.1727005,31.7185491 C16.900317,21.6367902 8.91798732,11.218817 0.553207607,0.968950893 C0.553207607,0.968950893 0.553207607,29.3837277 0.553207607,29.3837277 Z"></path>
                                        </g>
                                        <g opacity="0.15" transform="translate(0.057309, 7.660549)" fill="#FF5C61">
                                            <path d="M34.2672932,42.539279 C34.2672932,42.539279 0.81987,0.406258929 0.81987,0.406258929 C0.81987,0.406258929 0.81987,13.20575 0.81987,13.20575 C9.18581928,23.4556161 17.1669794,33.8747567 25.4393629,43.9553482 C25.4393629,43.9553482 32.1176197,43.9553482 32.1176197,43.9553482 C33.0825166,43.9553482 33.9105737,43.3716429 34.2672932,42.539279 Z" style="mix-blend-mode: color-dodge;" transform="translate(17.543582, 22.180804) scale(-1, 1) translate(-17.543582, -22.180804) "></path>
                                        </g>
                                    </g>
                                </g>
                            </g>
                        </g>
                    </g>
                </g>
                <g id="Group-Clipped" transform="translate(0.000000, 0.500000)">
                    <g>
                        <mask id="mask-16" fill="white">
                            <use xlink:href="#path-15"></use>
                        </mask>
                        <g id="path-17"></g>
                        <g id="Group" mask="url(#mask-16)">
                            <g transform="translate(173.000000, 247.000000)">
                                <g>
                                    <g transform="translate(23.528261, 23.222873) rotate(45.000000) translate(-23.528261, -23.222873) translate(7.028261, 7.222873)" fill-rule="nonzero">
                                        <g id="Diamond" transform="translate(0.080738, 0.080589)" fill="#FFA435">
                                            <path d="M28.9238955,30.9793145 C28.9238955,30.9793145 2.7677358,30.9793145 2.7677358,30.9793145 C1.60148377,30.9793145 0.65496038,30.0355948 0.65496038,28.8704435 C0.65496038,28.8704435 0.65496038,20.169139 0.65496038,2.76653001 L0.654955788,2.76653001 C0.654955788,1.59967383 1.60087962,0.65375 2.7677358,0.65375 C2.7677358,0.65375 2.7677358,0.65375 2.7677358,0.65375 C10.9889297,0.65375 19.2101236,0.65375 27.4313175,0.65375 C28.3870942,0.65375 29.3038222,1.03297461 29.9802832,1.70818548 C30.6566095,2.38326192 31.0366709,3.29961255 31.0366709,4.255199 C31.0366709,12.4602805 31.0366709,20.665362 31.0366709,28.8704435 C31.0366709,30.0355948 30.0901475,30.9793145 28.9238955,30.9793145 Z" id="Shape"></path>
                                        </g>
                                        <g id="Shape" opacity="0.15" transform="translate(0.607876, 2.208440)" fill="#FF5C5C">
                                            <path d="M0.127822913,0.673784274 C0.127822913,0.673784274 0.127822913,26.7425927 0.127822913,26.7425927 C0.127822913,27.9066895 1.0743463,28.8514637 2.24059833,28.8514637 C2.24059833,28.8514637 27.334032,28.8514637 27.334032,28.8514637 C17.9480272,19.6673306 8.8620365,10.2691472 0.127822913,0.673784274 Z"></path>
                                        </g>
                                    </g>
                                </g>
                            </g>
                        </g>
                    </g>
                </g>
                <g id="circle-Clipped" transform="translate(0.000000, 0.500000)">
                    <g>
                        <mask id="mask-18" fill="white">
                            <use xlink:href="#path-17"></use>
                        </mask>
                        <g id="path-19"></g>
                        <g id="circle" mask="url(#mask-18)">
                            <g transform="translate(220.000000, 183.000000)" id="Group">
                                <g>
                                    <g transform="translate(0.464342, 0.283482)">
                                        <g id="Mask" fill="#206FFD" fill-rule="nonzero">
                                            <ellipse id="path-4" cx="25.4381933" cy="25.391183" rx="25.4381933" ry="25.391183"></ellipse>
                                        </g>
                                        <g id="Rectangle-Copy-Clipped">
                                            <g>
                                                <mask id="mask-20" fill="white">
                                                    <use xlink:href="#path-19"></use>
                                                </mask>
                                                <g id="path-21"></g>
                                                <rect id="Rectangle-Copy" fill="#E4E3E3" fill-rule="nonzero" opacity="0.123883929" mask="url(#mask-20)" x="32.163233" y="-1.75111607" width="29.8240887" height="53.7008929"></rect>
                                            </g>
                                        </g>
                                        <g id="Rectangle-Clipped">
                                            <g>
                                                <mask id="mask-22" fill="white">
                                                    <use xlink:href="#path-21"></use>
                                                </mask>
                                                <g id="path-23"></g>
                                                <rect id="Rectangle" fill="#FFFFFF" fill-rule="nonzero" opacity="0.123883929" mask="url(#mask-22)" x="38.0110935" y="-1.75111607" width="29.8240887" height="53.7008929"></rect>
                                            </g>
                                        </g>
                                        <g id="Rectangle-Copy-3-Clipped">
                                            <g>
                                                <mask id="mask-24" fill="white">
                                                    <use xlink:href="#path-23"></use>
                                                </mask>
                                                <g id="path-25"></g>
                                                <rect id="Rectangle-Copy-3" fill="#E4E3E3" fill-rule="nonzero" opacity="0.123883929" mask="url(#mask-24)" x="20.4675119" y="-1.75111607" width="29.8240887" height="53.7008929"></rect>
                                            </g>
                                        </g>
                                        <g id="Rectangle-Copy-2-Clipped">
                                            <g>
                                                <mask id="mask-26" fill="white">
                                                    <use xlink:href="#path-25"></use>
                                                </mask>
                                                <g id="path-27"></g>
                                                <rect id="Rectangle-Copy-2" fill="#FFFFFF" fill-rule="nonzero" opacity="0.123883929" mask="url(#mask-26)" x="26.3153724" y="-1.75111607" width="35.6719493" height="53.7008929"></rect>
                                            </g>
                                        </g>
                                    </g>
                                </g>
                            </g>
                        </g>
                    </g>
                </g>
                <g id="Group-Clipped" transform="translate(0.000000, 0.500000)">
                    <g>
                        <mask id="mask-28" fill="white">
                            <use xlink:href="#path-27"></use>
                        </mask>
                        <g id="path-29"></g>
                        <g id="Group" mask="url(#mask-28)">
                            <g transform="translate(269.000000, 103.000000)">
                                <g>
                                    <g transform="translate(13.902539, 15.081224) scale(-1, 1) rotate(90.000000) translate(-13.902539, -15.081224) translate(-0.597461, 2.081224)" fill-rule="nonzero" id="Shape">
                                        <g transform="translate(0.167249, 0.642076)" fill="#FF5C61">
                                            <path d="M16.0617338,23.3085223 C16.0617338,23.3085223 27.0451854,4.32058705 27.0451854,4.32058705 C27.9445864,2.76326116 26.819458,0.818354911 25.0194865,0.818354911 C25.0194865,0.818354911 3.05141363,0.818354911 3.05141363,0.818354911 C1.25144216,0.818354911 0.125144216,2.76326116 1.02688431,4.32058705 C1.02688431,4.32058705 12.0091664,23.3085223 12.0091664,23.3085223 C12.9109065,24.8646808 15.1599937,24.8646808 16.0617338,23.3085223 Z"></path>
                                        </g>
                                        <g opacity="0.3" transform="translate(18.565788, 0.792672)" fill="#F7F9FF">
                                            <path d="M8.64664659,4.16882366 C9.54838669,2.61266518 8.42208875,0.666591518 6.62211727,0.666591518 C6.62211727,0.666591518 0.387128368,0.666591518 0.387128368,0.666591518 C2.29820919,3.31778125 4.18005071,5.98881696 6.04083994,8.6726942 C6.04083994,8.6726942 8.64664659,4.16882366 8.64664659,4.16882366 Z"></path>
                                        </g>
                                        <g opacity="0.15" transform="translate(10.320320, 1.389915)" fill="#F7F9FF">
                                            <path d="M14.2863074,8.07545089 C12.4243487,5.39157366 10.5436767,2.72170536 8.63259588,0.07051562 C8.63259588,0.07051562 0.08419334,0.07051562 0.08419334,0.07051562 C3.55899208,4.86857366 7.11332171,9.5872478 10.7015689,14.2732344 C10.7015689,14.2732344 14.2863074,8.07545089 14.2863074,8.07545089 Z"></path>
                                        </g>
                                    </g>
                                </g>
                            </g>
                        </g>
                    </g>
                </g>
                <g id="Group-Clipped" transform="translate(0.000000, 0.500000)">
                    <g>
                        <mask id="mask-30" fill="white">
                            <use xlink:href="#path-29"></use>
                        </mask>
                        <g id="path-31"></g>
                        <g id="Group" mask="url(#mask-30)">
                            <g transform="translate(95.000000, 116.000000)">
                                <g>
                                    <g transform="translate(0.904913, 0.157366)" fill-rule="nonzero" id="Shape">
                                        <g transform="translate(0.679521, 0.131917)" fill="#374DFF">
                                            <path d="M34.3058891,31.5200893 C34.3058891,31.5200893 34.3058891,31.5200893 34.3058891,31.5200893 C34.3058891,14.2003839 20.2394453,0.159935268 2.88767353,0.159935268 C2.88767353,0.159935268 1.53096989,0.159935268 1.53096989,0.159935268 C0.781274168,0.159935268 0.852618067,0.765821429 0.852618067,1.51296429 C0.852618067,1.51296429 0.852618067,61.5272143 0.852618067,61.5272143 C0.852618067,62.2743571 0.781274168,62.8802433 1.53096989,62.8802433 C1.53096989,62.8802433 2.88767353,62.8802433 2.88767353,62.8802433 C20.2394453,62.8802433 34.3058891,48.8397946 34.3058891,31.5200893 Z"></path>
                                        </g>
                                        <g opacity="0.3" transform="translate(1.460811, 42.981728)" fill="#132990">
                                            <path d="M0.07249762,0.982959821 C0.07249762,0.982959821 0.07249762,18.677404 0.07249762,18.677404 C0.07249762,19.4245469 0.00115372,20.030433 0.75084945,20.030433 C0.75084945,20.030433 2.10638352,20.030433 2.10638352,20.030433 C6.43380032,20.030433 10.556542,19.1537076 14.3085293,17.5742009 C9.4840444,12.1060491 4.72739461,6.58186161 0.07249762,0.982959821 Z"></path>
                                        </g>
                                        <g opacity="0.15" transform="translate(0.642095, 21.349607)" fill="#132990">
                                            <path d="M27.1808558,30.2347701 C18.2418162,20.5067366 9.35774643,10.6701339 0.890044374,0.485642857 C0.890044374,0.485642857 0.890044374,22.6162478 0.890044374,22.6162478 C5.54611094,28.2151496 10.3015911,33.7381696 15.1260761,39.2063214 C19.8429604,37.2193884 23.9727195,34.1210804 27.1808558,30.2347701 Z"></path>
                                        </g>
                                    </g>
                                </g>
                            </g>
                        </g>
                    </g>
                </g>
                <g id="Group-Clipped" transform="translate(0.000000, 0.500000)">
                    <g>
                        <mask id="mask-32" fill="white">
                            <use xlink:href="#path-31"></use>
                        </mask>
                        <g id="path-33"></g>
                        <g id="Group" mask="url(#mask-32)">
                            <g transform="translate(169.000000, 60.000000)" id="Shape-+-Shape-Copy-Mask">
                                <g>
                                    <g id="Group" transform="translate(0.587956, 0.121652)">
                                        <g>
                                            <g id="Mask" fill="#13B57D" fill-rule="nonzero">
                                                <path d="M23.7002092,1.2643058 C23.7002092,1.2643058 0.608177496,41.1885848 0.608177496,41.1885848 C-0.292393027,42.7447433 0.831565769,44.690817 2.63270681,44.690817 C2.63270681,44.690817 48.8191094,44.690817 48.8191094,44.690817 C50.6190808,44.690817 51.7453788,42.7447433 50.8448082,41.1885848 C50.8448082,41.1885848 27.7527765,1.2643058 27.7527765,1.2643058 C26.8510365,-0.291852679 24.6019493,-0.291852679 23.7002092,1.2643058 Z" id="path-6"></path>
                                            </g>
                                            <g id="Shape-Clipped">
                                                <g>
                                                    <mask id="mask-34" fill="white">
                                                        <use xlink:href="#path-33"></use>
                                                    </mask>
                                                    <g id="path-35"></g>
                                                    <path d="M31.2766973,56.3637567 C33.0766688,56.3637567 34.2029667,54.417683 33.3012266,52.8615246 C33.3012266,52.8615246 10.2091949,12.9372455 10.2091949,12.9372455 C9.30862441,11.3810871 7.05836767,11.3810871 6.15779715,12.9372455 C6.15779715,12.9372455 1.65728368,20.7192054 1.65728368,20.7192054 C8.02209509,32.7855625 14.7178954,44.631279 21.5867924,56.3637567 C21.5867924,56.3637567 31.2766973,56.3637567 31.2766973,56.3637567 Z" id="Shape" fill="#F7F9FF" fill-rule="nonzero" opacity="0.126116071" mask="url(#mask-34)"></path>
                                                </g>
                                            </g>
                                            <g id="Shape-Copy-2-Clipped">
                                                <g>
                                                    <mask id="mask-36" fill="white">
                                                        <use xlink:href="#path-35"></use>
                                                    </mask>
                                                    <g id="path-37"></g>
                                                    <path d="M17.8266181,56.9474621 C19.6265895,56.9474621 20.7528875,55.0013884 19.8511474,53.4452299 C19.8511474,53.4452299 -3.24088431,13.5209509 -3.24088431,13.5209509 C-4.14145483,11.9647924 -6.39171157,11.9647924 -7.29228209,13.5209509 C-7.29228209,13.5209509 -11.7927956,21.3029107 -11.7927956,21.3029107 C-5.42798415,33.3692679 1.26781616,45.2149844 8.13671315,56.9474621 C8.13671315,56.9474621 17.8266181,56.9474621 17.8266181,56.9474621 Z" id="Shape-Copy-2" fill="#F7F9FF" fill-rule="nonzero" opacity="0.0434709821" mask="url(#mask-36)"></path>
                                                </g>
                                            </g>
                                            <g id="Shape-Copy-Clipped">
                                                <g>
                                                    <mask id="mask-38" fill="white">
                                                        <use xlink:href="#path-37"></use>
                                                    </mask>
                                                    <g id="path-39"></g>
                                                    <path d="M40.0484881,48.1918817 C41.8484596,48.1918817 42.9747575,46.245808 42.0730174,44.6896496 C42.0730174,44.6896496 18.9809857,4.76537054 18.9809857,4.76537054 C18.0804152,3.20921205 15.8301585,3.20921205 14.929588,4.76537054 C14.929588,4.76537054 10.4290745,12.5473304 10.4290745,12.5473304 C16.7938859,24.6136875 23.4896862,36.459404 30.3585832,48.1918817 C30.3585832,48.1918817 40.0484881,48.1918817 40.0484881,48.1918817 Z" id="Shape-Copy" fill="#F7F9FF" fill-rule="nonzero" opacity="0.212444196" mask="url(#mask-38)"></path>
                                                </g>
                                            </g>
                                        </g>
                                    </g>
                                </g>
                            </g>
                        </g>
                    </g>
                </g>
                <g id="Group-2-Clipped" transform="translate(0.000000, 0.500000)">
                    <g>
                        <mask id="mask-40" fill="white">
                            <use xlink:href="#path-39"></use>
                        </mask>
                        <g id="path-41"></g>
                        <g id="Group-2" mask="url(#mask-40)">
                            <g transform="translate(-105.000000, 185.000000)" id="Group">
                                <g>
                                    <g transform="translate(0.908082, 0.034598)" fill-rule="nonzero" id="Shape">
                                        <g transform="translate(237.375972, 29.742656) rotate(1.638868) translate(-237.375972, -29.742656) translate(181.875972, 1.742656)" fill="#555A69">
                                            <g id="Group" transform="translate(0.262354, 0.576223)">
                                                <path d="M0.334497623,35.4239107 C0.334497623,35.4239107 40.029775,3.66566964 40.029775,3.66566964 C44.3431569,0.21246875 50.2144089,-0.586040179 55.2997084,1.58767857 C55.2997084,1.58767857 70.4199366,8.05746875 70.4199366,8.05746875 C72.4713661,8.93302679 73.119309,11.5176741 71.7275182,13.2571161 C71.4234295,13.637692 71.0398098,13.9482232 70.6000507,14.1676964 C70.6000507,14.1676964 59.0493566,16.892433 59.0493566,16.892433 C59.0493566,16.892433 103.745724,4.33342857 103.745724,4.33342857 C109.022834,2.84848214 111.946764,10.2195134 107.083683,12.7434554 C107.083683,12.7434554 68.1743582,32.9443304 68.1743582,32.9443304 C65.8375531,34.1561027 63.1007544,34.3452232 60.6189223,33.4626607 C60.6189223,33.4626607 48.6658954,29.2132857 48.6658954,29.2132857 C44.0343899,27.5672366 38.8602029,28.9284375 35.6462187,32.6431384 C35.6462187,32.6431384 16.9120127,54.286933 16.9120127,54.286933 C16.9120127,54.286933 0.334497623,35.4239107 0.334497623,35.4239107 Z" id="Shape"></path>
                                            </g>
                                        </g>
                                        <path d="M189.687455,23.3482143 C189.687455,23.3482143 111.888518,84.5701381 111.888518,84.5701381 C111.888518,84.5701381 111.888518,86.2354379 111.888518,86.2354379 C97.8288933,86.2354379 88.4558098,97.897201 86.1125389,109.558964 C84.6784571,125.241703 93.7586318,137.428245 106.384175,144.007812 C113.296824,144.826468 120.509412,142.645718 125.849726,137.397925 C125.849726,137.397925 214.031696,50.7580222 214.031696,50.7580222 C214.031696,50.7580222 189.687455,23.3482143 189.687455,23.3482143 Z" fill="#34405F"></path>
                                        <path d="M113.644998,83.2374981 C113.644998,83.2374981 112.155576,84.413921 112.155576,84.413921 C112.155576,84.413921 40.2190685,11.6741071 40.2190685,11.6741071 C40.2190685,11.6741071 0,54.0253308 0,54.0253308 C0,54.0253308 92.7813998,136.197535 92.7813998,136.197535 C92.7813998,136.197535 94.4742435,137.698408 94.4742435,137.698408 C99.0757857,141.752865 104.886168,143.718239 110.659139,143.585191 C121.945544,126.844506 121.335278,104.585839 113.644998,83.2374981 Z" fill="#34405F"></path>
                                        <path d="M95.8168746,115.562467 C95.8168746,115.562467 94.1070867,114.046521 94.1070867,114.046521 C94.1070867,114.046521 13.2317747,42.6104911 13.2317747,42.6104911 C13.2317747,42.6104911 7.21238429,48.9308189 7.21238429,48.9308189 C7.21238429,48.9308189 1.16957211,55.2744689 1.16957211,55.2744689 C1.16957211,55.2744689 94.1070867,137.368764 94.1070867,137.368764 C94.1070867,137.368764 95.8168746,138.88471 95.8168746,138.88471 C100.426276,142.928786 106.246581,144.885523 112.029412,144.752586 C117.065089,137.296465 119.737511,128.751195 120.465927,119.67651 C112.326868,122.992933 102.716923,121.616921 95.8168746,115.562467 Z" fill="#27324E"></path>
                                        <path d="M125.270111,138.55471 C125.270111,138.55471 213.44691,51.6063537 213.44691,51.6063537 C213.44691,51.6063537 207.919017,45.3573063 207.919017,45.3573063 C207.919017,45.3573063 202.388781,39.1082589 202.388781,39.1082589 C202.388781,39.1082589 125.270111,115.150038 125.270111,115.150038 C116.342061,123.92679 102.209496,124.207646 92.9533811,116.06282 C92.9533811,116.06282 91.240414,114.541517 91.240414,114.541517 C91.240414,114.541517 85.7476713,109.673345 85.7476713,109.673345 C85.6750283,109.984627 85.5906688,110.295909 85.5273992,110.609532 C84.0956305,126.342152 93.1689666,138.568753 105.787746,145.173551 C112.705228,145.997396 119.922654,143.81374 125.270111,138.55471 Z" fill="#27324E"></path>
                                    </g>
                                </g>
                            </g>
                        </g>
                    </g>
                </g>
                <g id="Group-2-Copy-Clipped" transform="translate(0.000000, 0.500000)">
                    <g>
                        <mask id="mask-42" fill="white">
                            <use xlink:href="#path-41"></use>
                        </mask>
                        <g id="path-43"></g>
                        <g id="Group-2-Copy" mask="url(#mask-42)">
                            <g transform="translate(153.000000, 289.000000)" id="Group">
                                <g>
                                    <g transform="translate(147.946118, 73.517857) scale(-1, 1) translate(-147.946118, -73.517857) translate(0.946118, 0.517857)" fill-rule="nonzero" id="Shape">
                                        <g transform="translate(237.375972, 29.742656) rotate(1.638868) translate(-237.375972, -29.742656) translate(181.875972, 1.742656)" fill="#555A69">
                                            <g id="Group" transform="translate(0.262354, 0.576223)">
                                                <path d="M0.334497623,35.4239107 C0.334497623,35.4239107 40.029775,3.66566964 40.029775,3.66566964 C44.3431569,0.21246875 50.2144089,-0.586040179 55.2997084,1.58767857 C55.2997084,1.58767857 70.4199366,8.05746875 70.4199366,8.05746875 C72.4713661,8.93302679 73.119309,11.5176741 71.7275182,13.2571161 C71.4234295,13.637692 71.0398098,13.9482232 70.6000507,14.1676964 C70.6000507,14.1676964 59.0493566,16.892433 59.0493566,16.892433 C59.0493566,16.892433 103.745724,4.33342857 103.745724,4.33342857 C109.022834,2.84848214 111.946764,10.2195134 107.083683,12.7434554 C107.083683,12.7434554 68.1743582,32.9443304 68.1743582,32.9443304 C65.8375531,34.1561027 63.1007544,34.3452232 60.6189223,33.4626607 C60.6189223,33.4626607 48.6658954,29.2132857 48.6658954,29.2132857 C44.0343899,27.5672366 38.8602029,28.9284375 35.6462187,32.6431384 C35.6462187,32.6431384 16.9120127,54.286933 16.9120127,54.286933 C16.9120127,54.286933 0.334497623,35.4239107 0.334497623,35.4239107 Z" id="Shape"></path>
                                            </g>
                                        </g>
                                        <path d="M189.687455,23.3482143 C189.687455,23.3482143 111.888518,84.5701381 111.888518,84.5701381 C111.888518,84.5701381 111.888518,86.2354379 111.888518,86.2354379 C97.8288933,86.2354379 88.4558098,97.897201 86.1125389,109.558964 C84.6784571,125.241703 93.7586318,137.428245 106.384175,144.007812 C113.296824,144.826468 120.509412,142.645718 125.849726,137.397925 C125.849726,137.397925 214.031696,50.7580222 214.031696,50.7580222 C214.031696,50.7580222 189.687455,23.3482143 189.687455,23.3482143 Z" fill="#DCA50C"></path>
                                        <path d="M113.644998,83.2374981 C113.644998,83.2374981 112.155576,84.413921 112.155576,84.413921 C112.155576,84.413921 40.2190685,11.6741071 40.2190685,11.6741071 C40.2190685,11.6741071 0,54.0253308 0,54.0253308 C0,54.0253308 92.7813998,136.197535 92.7813998,136.197535 C92.7813998,136.197535 94.4742435,137.698408 94.4742435,137.698408 C99.0757857,141.752865 104.886168,143.718239 110.659139,143.585191 C121.945544,126.844506 121.335278,104.585839 113.644998,83.2374981 Z" fill="#DCA50C"></path>
                                        <path d="M95.8168746,115.562467 C95.8168746,115.562467 94.1070867,114.046521 94.1070867,114.046521 C94.1070867,114.046521 13.2317747,42.6104911 13.2317747,42.6104911 C13.2317747,42.6104911 7.21238429,48.9308189 7.21238429,48.9308189 C7.21238429,48.9308189 1.16957211,55.2744689 1.16957211,55.2744689 C1.16957211,55.2744689 94.1070867,137.368764 94.1070867,137.368764 C94.1070867,137.368764 95.8168746,138.88471 95.8168746,138.88471 C100.426276,142.928786 106.246581,144.885523 112.029412,144.752586 C117.065089,137.296465 119.737511,128.751195 120.465927,119.67651 C112.326868,122.992933 102.716923,121.616921 95.8168746,115.562467 Z" fill="#FAC124"></path>
                                        <path d="M125.270111,138.55471 C125.270111,138.55471 213.44691,51.6063537 213.44691,51.6063537 C213.44691,51.6063537 207.919017,45.3573063 207.919017,45.3573063 C207.919017,45.3573063 202.388781,39.1082589 202.388781,39.1082589 C202.388781,39.1082589 125.270111,115.150038 125.270111,115.150038 C116.342061,123.92679 102.209496,124.207646 92.9533811,116.06282 C92.9533811,116.06282 91.240414,114.541517 91.240414,114.541517 C91.240414,114.541517 85.7476713,109.673345 85.7476713,109.673345 C85.6750283,109.984627 85.5906688,110.295909 85.5273992,110.609532 C84.0956305,126.342152 93.1689666,138.568753 105.787746,145.173551 C112.705228,145.997396 119.922654,143.81374 125.270111,138.55471 Z" fill="#FAC124"></path>
                                    </g>
                                </g>
                            </g>
                        </g>
                    </g>
                </g>
            </g>
        </g>
    </g>
</svg>