<svg xmlns="http://www.w3.org/2000/svg" xmlns:xlink="http://www.w3.org/1999/xlink" width="1440" height="497" viewBox="0 0 1440 497">
    <defs>
        <path id="a" d="M0 0h1443v497H0z"/>
        <linearGradient id="c" x1="66.762%" x2="66.762%" y1="0%" y2="67.705%">
            <stop offset="0%" stop-color="#DBDBF3"/>
            <stop offset="100%" stop-color="#87A4FF"/>
        </linearGradient>
        <linearGradient id="d" x1="50%" x2="50%" y1="0%" y2="100%">
            <stop offset="0%" stop-color="#F0EBFF"/>
            <stop offset="100%" stop-color="#F0EBFF" stop-opacity="0"/>
        </linearGradient>
        <path id="e" d="M11.64.108C5.532.513.57 6.558.57 13.6c0 7.04 4.961 12.428 11.07 12.023 6.113-.405 11.074-6.45 11.074-13.491C22.714 5.34 18.098.087 12.285.087c-.213 0-.428.007-.644.02z"/>
        <path id="g" d="M.57 13.6c0 7.04 4.961 12.428 11.07 12.023 6.113-.405 11.074-6.45 11.074-13.491C22.714 5.34 18.098.087 12.285.087c-.213 0-.428.007-.644.02C5.53.514.57 6.559.57 13.6z"/>
        <path id="i" d="M.891 2.656V71.93c0 .699.294 1.365.809 1.835.515.47 1.204.702 1.898.637l60.923-5.666a2.48 2.48 0 0 0 2.248-2.461l.268-60.008a2.481 2.481 0 0 0-2.331-2.49C54.533 3.178 14.22.806 3.514.178A2.47 2.47 0 0 0 1.67.85a2.484 2.484 0 0 0-.778 1.806z"/>
        <path id="k" d="M3.529 1.113l-2.44 3.463a1.088 1.088 0 0 0 0 1.25l10.775 15.298 5.123 2.162-1.385-7.47L5.247 1.113c-.2-.282-.52-.45-.86-.45-.34 0-.66.168-.858.45z"/>
        <path id="m" d="M3.529 1.113l-2.44 3.463a1.088 1.088 0 0 0 0 1.25l10.775 15.298 5.123 2.162-1.385-7.47L5.247 1.113c-.2-.282-.52-.45-.86-.45-.34 0-.66.168-.858.45z"/>
        <path id="o" d="M3.529 1.113l-2.44 3.463a1.088 1.088 0 0 0 0 1.25l10.775 15.298 5.123 2.162-1.385-7.47L5.247 1.113c-.2-.282-.52-.45-.86-.45-.34 0-.66.168-.858.45z"/>
        <path id="q" d="M35.739.147l43.45 7.657-34.814 197.35-43.45-7.657z"/>
        <path id="s" d="M5.847 11.38C.401 26.079-3.254 34.41 8.213 35.282c10.813.824 23.673-4.454 26.866-15.381C37.71 10.902 33.455 2.8 24.287.822c-1.77-.382-3.965-.62-5.452-.62-6.218 0-10.121 3.443-12.988 11.179z"/>
        <path id="u" d="M5.847 11.38C.401 26.079-3.254 34.41 8.213 35.282c10.813.824 23.673-4.454 26.866-15.381C37.71 10.902 33.455 2.8 24.287.822c-1.77-.382-3.965-.62-5.452-.62-6.218 0-10.121 3.443-12.988 11.179z"/>
        <path id="w" d="M8.213 35.281c10.813.824 23.673-4.454 26.866-15.381C37.71 10.902 33.455 2.8 24.287.822c-1.77-.382-3.965-.62-5.452-.62-6.218 0-10.121 3.443-12.988 11.179-5.446 14.697-9.101 23.028 2.366 23.9z"/>
    </defs>
    <g fill="none" fill-rule="evenodd">
        <mask id="b" fill="#fff">
            <use xlink:href="#a"/>
        </mask>
        <use fill="#FFF" xlink:href="#a"/>
        <g mask="url(#b)">
            <path fill="url(#c)" fill-rule="nonzero" d="M0 22.44c37.874 8.264 129.832 29.338 154.637 113.837 26.336 89.72-15.15 222.576 28.753 326.68 29.37 69.662 74.642 108.988 166.645 140.019 92 31.03 257.61 13.978 402.39 166.894V22.44H0z" opacity=".088" transform="translate(685 -234.44)"/>
            <path fill="#9A78FF" fill-opacity=".1" fill-rule="nonzero" d="M1178.845-234.109h-5.708v515.284h5.708z"/>
            <path fill="#9A78FF" fill-opacity=".1" d="M1338.599-234.109h7.1l1.463 515.284h-8.563z"/>
            <path fill="#9A78FF" fill-opacity=".1" fill-rule="nonzero" d="M997.529-234.109h-8.562v515.284h8.562zM832.702-234.109h-11.417v515.284h11.417z"/>
            <g>
                <path fill="url(#d)" d="M566.157 537.406c0 2.048-1.649 3.707-3.684 3.707H453.18c-2.036 0-3.686-1.66-3.686-3.707v-61.408c0-2.046 1.65-3.708 3.686-3.708h109.293c2.035 0 3.684 1.662 3.684 3.708v61.408zM431.72 377.521c0 2.048-1.65 3.707-3.685 3.707H318.742c-2.035 0-3.685-1.66-3.685-3.707v-61.408c0-2.046 1.65-3.708 3.685-3.708h109.293c2.036 0 3.685 1.662 3.685 3.708v61.408z" opacity=".3" transform="translate(779 -185)"/>
                <path fill="url(#d)" d="M431.72 377.521c0 2.048-1.65 3.707-3.685 3.707H318.742c-2.035 0-3.685-1.66-3.685-3.707v-61.408c0-2.046 1.65-3.708 3.685-3.708h109.293c2.036 0 3.685 1.662 3.685 3.708v61.408zM364.101 537.406c0 2.048-1.651 3.707-3.687 3.707h-109.29c-2.035 0-3.686-1.66-3.686-3.707v-61.408c0-2.046 1.65-3.708 3.686-3.708h109.29c2.036 0 3.687 1.662 3.687 3.708v61.408z" opacity=".3" transform="translate(779 -185)"/>
                <path fill="#BCA6FF" d="M1481.226 27.58a3.683 3.683 0 0 1-3.394 3.673l-109.428 8.526a3.669 3.669 0 0 1-2.783-.969 3.676 3.676 0 0 1-1.181-2.705V15.873a3.684 3.684 0 0 1 3.248-3.66l109.43-12.862a3.684 3.684 0 0 1 2.875.906 3.695 3.695 0 0 1 1.233 2.754V27.58z"/>
                <path fill="#F9D367" d="M1461.11 157.838c0 1.08-.469 2.105-1.285 2.807-.82.702-1.9 1.01-2.965.843l-77.701-12.194a3.691 3.691 0 0 1-3.114-3.649v-61.28a3.69 3.69 0 0 1 3.568-3.692l77.702-2.437a3.685 3.685 0 0 1 3.796 3.692v75.91z"/>
                <path fill="#BCA6FF" d="M1457.387 157.317c0 1.08-.475 2.106-1.29 2.808a3.677 3.677 0 0 1-2.97.839l-77.7-12.36a3.69 3.69 0 0 1-3.106-3.65V84.019a3.69 3.69 0 0 1 3.45-3.687l77.703-4.899a3.683 3.683 0 0 1 3.913 3.687V157.317z"/>
                <path fill="#AC91FF" d="M779.9 355.636c0 1.187.573 2.302 1.537 2.995a3.701 3.701 0 0 0 3.333.505l92.708-30.944a3.693 3.693 0 0 0 2.524-3.501v-75.042a3.69 3.69 0 0 0-4.214-3.655l-92.707 13.075a3.693 3.693 0 0 0-3.18 3.655v92.912z"/>
                <path fill="#BCA6FF" d="M784.284 357.16a3.698 3.698 0 0 0 4.958 3.47l92.709-33.569a3.69 3.69 0 0 0 2.436-3.47v-72.279c0-1.07-.464-2.087-1.273-2.787a3.705 3.705 0 0 0-2.942-.868l-92.707 13.074a3.694 3.694 0 0 0-3.18 3.656v92.773z"/>
                <path fill="#CBF" d="M887.425 198.21c0 1.06.454 2.07 1.245 2.771a3.672 3.672 0 0 0 2.892.899l77.701-9.742a3.693 3.693 0 0 0 3.227-3.67V127.11a3.693 3.693 0 0 0-3.452-3.69l-77.7-4.904a3.678 3.678 0 0 0-2.752.995c-.741.7-1.161 1.675-1.161 2.695v76.004z"/>
                <path fill="#E6DEFF" d="M891.15 200.253c0 1.082.471 2.11 1.29 2.812a3.671 3.671 0 0 0 2.969.84l77.7-12.374a3.694 3.694 0 0 0 3.106-3.652v-61.003a3.692 3.692 0 0 0-3.451-3.692l-77.7-4.904a3.677 3.677 0 0 0-2.752.995 3.707 3.707 0 0 0-1.162 2.696V200.253z"/>
                <path fill="#F0EBFF" d="M784.538 99.893a3.697 3.697 0 0 0 3.794 3.695l77.886-2.18a3.694 3.694 0 0 0 3.588-3.696V31.018a3.695 3.695 0 0 0-3.237-3.67l-77.886-9.67a3.69 3.69 0 0 0-4.145 3.668v78.547z"/>
                <path fill="#AC91FF" d="M977.248 33.719a3.69 3.69 0 0 0 3.303 3.676c16.629 1.71 91.086 9.37 109.347 11.25a3.666 3.666 0 0 0 2.84-.934 3.701 3.701 0 0 0 1.213-2.742v-61.046a3.691 3.691 0 0 0-2.823-3.594L981.78-45.936a3.668 3.668 0 0 0-3.133.693 3.703 3.703 0 0 0-1.4 2.902v76.06z"/>
                <path fill="#BCA6FF" d="M982.36 36.813a3.69 3.69 0 0 0 3.392 3.685c16.832 1.315 91.273 7.137 109.347 8.55a3.668 3.668 0 0 0 2.783-.972 3.7 3.7 0 0 0 1.18-2.713V-15.32a3.693 3.693 0 0 0-2.823-3.595L986.894-45.178a3.663 3.663 0 0 0-3.135.693 3.7 3.7 0 0 0-1.4 2.9v78.397zM1342.88 58.535a3.69 3.69 0 0 1-3.728 3.689L1231.3 61.188a3.689 3.689 0 0 1-3.655-3.688V-9.615a3.69 3.69 0 0 1 3.333-3.671L1338.835-23.7a3.691 3.691 0 0 1 4.045 3.672v78.562z"/>
                <path fill="#F0EBFF" d="M1254.437 40.33a3.696 3.696 0 0 1-3.694 3.694h-140.017a3.697 3.697 0 0 1-3.697-3.695v-79.055a3.694 3.694 0 0 1 3.697-3.694h140.017a3.696 3.696 0 0 1 3.694 3.694V40.33zM1255.472 155.52c0 .982-.392 1.923-1.087 2.617a3.707 3.707 0 0 1-2.623 1.081l-140.295-.226a3.701 3.701 0 0 1-3.697-3.699V63.07a3.701 3.701 0 0 1 3.704-3.698h140.297c.982 0 1.923.39 2.618 1.083a3.692 3.692 0 0 1 1.083 2.615v92.451zM1255.472 243.97a3.703 3.703 0 0 1-3.738 3.685c-20.568-.17-119.878-.993-140.291-1.16a3.696 3.696 0 0 1-3.673-3.688v-64.569c0-.983.395-1.925 1.096-2.617a3.713 3.713 0 0 1 2.638-1.069l140.295 1.162c2.032.016 3.673 1.661 3.673 3.685v64.57z"/>
                <path fill="#AC91FF" d="M1275.556 35.329a3.493 3.493 0 0 1 3.14-3.469l117.189-12.085a3.519 3.519 0 0 1 2.709.88 3.491 3.491 0 0 1 1.156 2.59v81.786a3.5 3.5 0 0 1-3.579 3.486c-18.106-.396-99.446-2.18-117.189-2.57a3.492 3.492 0 0 1-3.426-3.486V35.33z"/>
                <path fill="#FFF" d="M1272.638 35.457a3.493 3.493 0 0 1 3.144-3.469l117.189-12.085a3.503 3.503 0 0 1 2.704.88 3.476 3.476 0 0 1 1.156 2.588v81.788c0 .938-.378 1.837-1.051 2.493a3.51 3.51 0 0 1-2.528.994c-18.104-.397-99.445-2.182-117.189-2.57a3.498 3.498 0 0 1-3.425-3.488v-67.13z"/>
                <path fill="#6B48D6" d="M1397.098 23.388a3.47 3.47 0 0 0-1.157-2.587 3.502 3.502 0 0 0-2.7-.883l-117.21 11.845a3.495 3.495 0 0 0-3.147 3.47v6.481l124.214-9.203v-9.123z"/>
                <path fill="#F0EBFF" d="M1294.902 45.44v60.98l-18.165-.56a4.004 4.004 0 0 1-3.89-3.995V41.681l.48-.035.009-.096 115.205-10.205 8.692-1.065-.357 74.177a3.98 3.98 0 0 1-1.2 2.85 4.01 4.01 0 0 1-2.883 1.145l-17.972-.32V39.954l-79.919 5.485z"/>
                <path fill="#BCA6FF" d="M1360.162 84.39c0-.837-.342-1.64-.948-2.221a3.104 3.104 0 0 0-2.265-.862c-9.492.343-37.246 1.35-45.186 1.638a2.222 2.222 0 0 0-2.149 2.217 3.205 3.205 0 0 0 3.293 3.188c9.376-.26 36.078-1.006 44.603-1.244a2.72 2.72 0 0 0 2.652-2.715zM1360.162 94.987c0-.742-.299-1.453-.826-1.977a2.81 2.81 0 0 0-1.992-.81l-45.106.291a2.637 2.637 0 0 0-2.624 2.631c0 .744.299 1.454.827 1.978a2.805 2.805 0 0 0 1.99.81l45.107-.291a2.637 2.637 0 0 0 2.624-2.631v-.001z"/>
                <path fill="#FC73FF" d="M1333.355 50.77c6.138-.406 11.12 4.984 11.12 12.028 0 7.046-4.982 13.093-11.12 13.499-6.136.406-11.117-4.985-11.117-12.03 0-7.044 4.981-13.093 11.117-13.497z"/>
                <g transform="translate(1322.039 50.735)">
                    <mask id="f" fill="#fff">
                        <use xlink:href="#e"/>
                    </mask>
                    <path fill="#7650E9" d="M11.64 4.566c2.135-.143 3.87 1.74 3.87 4.2s-1.735 4.573-3.87 4.715c-2.135.141-3.87-1.741-3.87-4.201 0-2.461 1.735-4.573 3.87-4.714z" mask="url(#f)"/>
                </g>
                <g transform="translate(1322.039 50.735)">
                    <mask id="h" fill="#fff">
                        <use xlink:href="#g"/>
                    </mask>
                    <path fill="#7650E9" d="M11.64 12.66c4.728-.314 8.57 3.41 8.57 8.311s-3.842 9.135-8.57 9.448c-4.728.314-8.565-3.41-8.565-8.31 0-4.902 3.837-9.136 8.566-9.45z" mask="url(#h)"/>
                </g>
                <path fill="#BCA6FF" d="M1420.771 295.527a3.674 3.674 0 0 1-1.504 2.958 3.716 3.716 0 0 1-3.287.553l-137.817-42.348a3.678 3.678 0 0 1-2.606-3.51v-92.032c0-1.028.433-2.01 1.194-2.705a3.715 3.715 0 0 1 2.811-.956l137.822 11.52a3.683 3.683 0 0 1 3.387 3.661v122.86z"/>
                <path fill="#F0EBFF" d="M1417.852 295.527a3.668 3.668 0 0 1-1.502 2.958 3.715 3.715 0 0 1-3.286.553c-22.867-7.027-120.575-37.05-137.821-42.348a3.678 3.678 0 0 1-2.605-3.51v-92.032c0-1.028.436-2.01 1.198-2.705a3.702 3.702 0 0 1 2.811-.956l137.817 11.52a3.683 3.683 0 0 1 3.388 3.661v122.86z"/>
                <path fill="#FFF" d="M1335.028 188.728c0-1.112-.85-2.042-1.96-2.15-7.678-.748-35.672-3.47-44.052-4.285a2.174 2.174 0 0 0-1.67.55c-.456.41-.714.991-.714 1.6v59.377c0 .991.678 1.855 1.646 2.095 7.106 1.767 35.18 8.744 44.049 10.947.649.162 1.338.017 1.867-.392.524-.41.834-1.037.834-1.703v-66.04z"/>
                <path fill="#BCA6FF" d="M1307.588 193.447a.9.9 0 0 1 .702-.322.89.89 0 0 1 .689.341c2.945 3.746 14.487 18.416 16.084 20.446a.907.907 0 0 1 .19.53c.052 2.82.476 24.926.576 30.197a.891.891 0 0 1-1.084.884c-2.46-.538-8.333-1.819-10.345-2.26a.886.886 0 0 1-.702-.857l-.153-14.344a.893.893 0 0 0-.766-.868l-7.284-1.04a.891.891 0 0 0-.71.208.88.88 0 0 0-.31.67v13.034a.886.886 0 0 1-.331.69.896.896 0 0 1-.75.178l-7.445-1.601a.888.888 0 0 1-.702-.857l-.327-29.487a.863.863 0 0 1 .206-.576l12.462-14.966z"/>
                <path fill="#CBF" d="M1418.327 172.016a3.49 3.49 0 0 0-3.226-3.473l-138.418-10.926a3.517 3.517 0 0 0-2.653.914 3.47 3.47 0 0 0-1.126 2.558v5.776l145.423 15.654v-10.503z"/>
                <path fill="#BCA6FF" fill-rule="nonzero" d="M1348.018 191.24a1.07 1.07 0 1 1 .27-2.122l48.396 6.139a1.071 1.071 0 0 1-.27 2.123l-48.396-6.14zM1348.018 202.205a1.07 1.07 0 1 1 .27-2.122l48.396 6.139a1.07 1.07 0 0 1-.27 2.122l-48.396-6.139zM1348.018 212.89a1.07 1.07 0 1 1 .27-2.122l48.396 6.139a1.07 1.07 0 0 1-.27 2.122l-48.396-6.139z"/>
                <path fill="#7650E9" d="M1389.289 245.543c6.135 0 11.116 6.46 11.116 14.415 0 7.956-4.981 14.415-11.116 14.415-6.134 0-11.115-6.459-11.115-14.415 0-7.956 4.981-14.415 11.115-14.415z"/>
                <path fill="#F0EBFF" d="M1413.082-129.543a3.692 3.692 0 0 0-1.535-2.996 3.712 3.712 0 0 0-3.332-.503c-22.544 7.561-116.444 39.045-133.059 44.617a3.69 3.69 0 0 0-2.518 3.499v81.463c0 1.086.48 2.118 1.313 2.819a3.685 3.685 0 0 0 2.997.819l133.06-22.57a3.693 3.693 0 0 0 3.074-3.637v-103.511z"/>
                <path fill="#AC91FF" d="M923.392 57.408a3.487 3.487 0 0 0-3.125-3.464l-87.123-9.165a3.494 3.494 0 0 0-2.7.875 3.479 3.479 0 0 0-1.156 2.59V150.44c0 .988.42 1.93 1.157 2.59.736.662 1.72.979 2.704.874l87.123-9.308a3.486 3.486 0 0 0 3.12-3.464V57.408z"/>
                <path fill="#BCA6FF" d="M925.37 57.765a3.486 3.486 0 0 0-3.125-3.465c-14.082-1.48-71.632-7.535-87.124-9.165a3.496 3.496 0 0 0-2.7.875 3.483 3.483 0 0 0-1.156 2.59v102.195c0 .99.421 1.93 1.158 2.592.737.66 1.72.978 2.704.873l87.124-9.308a3.487 3.487 0 0 0 3.118-3.465V57.765z"/>
                <path fill="#F0EBFF" d="M911.942 72.103a2.474 2.474 0 0 0-2.331-2.478l-61.165-3.583a2.477 2.477 0 0 0-2.62 2.466v68.956c0 .695.292 1.358.807 1.826a2.48 2.48 0 0 0 1.897.635l60.897-5.641a2.473 2.473 0 0 0 2.247-2.45l.268-59.731z"/>
                <g transform="translate(844.961 65.695)">
                    <mask id="j" fill="#fff">
                        <use xlink:href="#i"/>
                    </mask>
                    <path fill="#7650E9" d="M-9.036 74.652h89.222v-41.59H-9.036z" mask="url(#j)"/>
                </g>
                <path fill="#FFF" d="M873.017 89.763a2.401 2.401 0 0 0-2.32-2.391l-14.805-.541a2.419 2.419 0 0 0-1.76.668 2.385 2.385 0 0 0-.738 1.722v19.82c0 .657.272 1.284.75 1.736a2.422 2.422 0 0 0 1.784.654l14.804-.76a2.401 2.401 0 0 0 2.285-2.39V89.763z"/>
                <path fill="#DCD7EE" d="M1080.912 64.637a3.493 3.493 0 0 0-3.313-3.484l-131.398-6.984a3.5 3.5 0 0 0-2.592.952 3.484 3.484 0 0 0-1.092 2.532v81.882c0 .962.398 1.88 1.1 2.54.7.658 1.644 1 2.605.943 19.775-1.17 112.68-6.662 131.399-7.77a3.493 3.493 0 0 0 3.29-3.482v-67.13z"/>
                <path fill="#F0EBFF" d="M1085.633 64.637a3.493 3.493 0 0 0-3.313-3.484l-131.398-6.984a3.5 3.5 0 0 0-2.592.952 3.484 3.484 0 0 0-1.092 2.532v81.882c0 .962.398 1.88 1.1 2.54.701.658 1.644 1 2.606.943 19.774-1.17 112.68-6.662 131.398-7.77a3.493 3.493 0 0 0 3.29-3.482v-67.13z"/>
                <path fill="#CBF" d="M947.24 56.845c0-.958.394-1.874 1.09-2.533a3.498 3.498 0 0 1 2.595-.95c19.779 1.063 113.127 7.024 132.027 8.041a3.492 3.492 0 0 1 3.309 3.519l-.065 6.711-138.957-4.668v-10.12z"/>
                <path fill="#DCD7EE" d="M826.616 273.101a3.687 3.687 0 0 0 4.578 3.576c15.691-3.917 67.017-16.73 79.577-19.864a3.685 3.685 0 0 0 2.793-3.576V183.24a3.684 3.684 0 0 0-4.135-3.656c-14.97 1.836-66.167 8.115-79.576 9.761a3.685 3.685 0 0 0-3.237 3.658v80.1z"/>
                <path fill="#F0EBFF" d="M830.844 273.18a3.687 3.687 0 0 0 4.578 3.575l79.576-19.864a3.685 3.685 0 0 0 2.793-3.575v-69.997a3.687 3.687 0 0 0-4.134-3.658l-79.577 9.762a3.685 3.685 0 0 0-3.236 3.657v80.1z"/>
                <path fill="#BCA6FF" d="M830.293 192.797a3.493 3.493 0 0 1 3.084-3.469l80.461-9.512a3.495 3.495 0 0 1 3.905 3.47v9l-87.45 11.88v-11.369z"/>
                <path fill="#FFF" d="M898.83 217.688a7.135 7.135 0 0 0-8.213-7.055l-31.448 4.8a6.45 6.45 0 0 0-5.478 6.376 7.137 7.137 0 0 0 8.214 7.055l31.448-4.8a6.45 6.45 0 0 0 5.477-6.376zM898.83 238.19a7.16 7.16 0 0 0-8.444-7.042L858.87 236.9c-3 .547-5.18 3.16-5.18 6.21a7.157 7.157 0 0 0 8.445 7.042l31.514-5.751c3-.548 5.18-3.16 5.18-6.21z"/>
                <path fill="#AC91FF" d="M941.059 293.896a3.685 3.685 0 0 0 4.662 3.549c22.241-6.14 117.207-32.35 134.482-37.118a3.682 3.682 0 0 0 2.703-3.548v-89.29a3.684 3.684 0 0 0-3.926-3.672c-20.516 1.363-115.19 7.301-134.484 8.584a3.681 3.681 0 0 0-3.437 3.674v117.82z"/>
                <path fill="#BCA6FF" d="M944.844 292.887a3.682 3.682 0 0 0 4.66 3.55c22.242-6.14 117.208-32.349 134.484-37.118a3.681 3.681 0 0 0 2.702-3.549v-88.219a3.68 3.68 0 0 0-3.926-3.674c-20.515 1.365-115.191 7.66-134.483 8.94a3.683 3.683 0 0 0-3.437 3.675v116.395z"/>
                <path fill="#F0EBFF" d="M1024.637 193.36a2.66 2.66 0 0 0-3.007-2.638l-60.864 8.002a2.66 2.66 0 0 0-2.314 2.638v72.265a2.66 2.66 0 0 0 3.305 2.58c11.77-2.935 51.447-12.832 60.863-15.182a2.66 2.66 0 0 0 2.017-2.58V193.36z"/>
                <path fill="#BCA6FF" d="M991.678 212.987c8.74-1.258 15.837 5.788 15.837 15.724 0 9.937-7.097 19.025-15.837 20.283-8.741 1.258-15.838-5.787-15.838-15.725 0-9.936 7.097-19.024 15.838-20.282z"/>
                <path fill="#6B48D6" d="M944.844 175.701a3.49 3.49 0 0 1 3.275-3.482c19-1.178 114.947-7.48 135.072-8.727a3.491 3.491 0 0 1 3.707 3.484v5.714l-142.054 12.767v-9.756z"/>
                <path fill="#FFF" d="M1074.74 189.698a3.445 3.445 0 0 0-3.793-3.43l-17.914 1.799a4.185 4.185 0 0 0-3.767 4.163v.001a3.448 3.448 0 0 0 3.792 3.43c4.823-.484 13.104-1.317 17.915-1.799a4.185 4.185 0 0 0 3.767-4.164zM1074.74 206.272a3.326 3.326 0 0 0-3.77-3.292l-17.945 2.432a4.341 4.341 0 0 0-3.759 4.302 3.32 3.32 0 0 0 3.77 3.292l17.945-2.432a4.34 4.34 0 0 0 3.759-4.302zM1074.74 223.834a3.326 3.326 0 0 0-3.77-3.292l-17.945 2.432a4.341 4.341 0 0 0-3.759 4.302v.001a3.324 3.324 0 0 0 3.77 3.292c4.822-.653 13.126-1.78 17.945-2.432a4.342 4.342 0 0 0 3.759-4.302z"/>
                <path fill="#7650E9" d="M1043.4 193.06c0-2.722-1.931-4.37-4.314-3.681l-.064.018c-2.382.689-4.313 3.453-4.313 6.176 0 2.722 1.93 4.37 4.313 3.681l.064-.019c2.383-.689 4.313-3.453 4.313-6.175zM1042.706 211.237c0-2.55-1.839-4.085-4.108-3.429-2.269.656-4.108 3.255-4.108 5.805v.08c0 2.55 1.84 4.085 4.108 3.429 2.269-.655 4.108-3.255 4.108-5.804v-.08zM1042.78 228.778c0-2.597-1.872-4.16-4.182-3.493-2.31.669-4.183 3.315-4.183 5.912v.08c0 2.597 1.873 4.16 4.183 3.492 2.31-.667 4.182-3.313 4.182-5.91v-.081z"/>
                <path fill="#F6A924" d="M986.979 34.557a3.5 3.5 0 0 0-2.962-3.459l-81.314-12.702a3.503 3.503 0 0 0-4.043 3.46v39.25a3.5 3.5 0 0 0 3.29 3.493l81.315 4.91a3.503 3.503 0 0 0 3.714-3.495V34.557z"/>
                <path fill="#F9D367" d="M991.179 35.013a3.5 3.5 0 0 0-2.962-3.459l-81.314-12.702a3.502 3.502 0 0 0-4.043 3.46v39.25a3.502 3.502 0 0 0 3.29 3.494l81.315 4.91a3.504 3.504 0 0 0 3.714-3.495V35.013z"/>
                <path fill="#7650E9" d="M962.135 18.622c0 10.878-6.773 19.71-15.116 19.71s-15.116-8.832-15.116-19.71c0-10.877 6.773-19.708 15.116-19.708s15.116 8.83 15.116 19.708z"/>
                <path fill="#F6A924" d="M958.293 43.551l-22.581-1.45a2.183 2.183 0 0 0-2.326 2.18 2.52 2.52 0 0 0 2.36 2.515l22.581 1.451a2.187 2.187 0 0 0 2.326-2.18c0-1.33-1.033-2.43-2.36-2.516z"/>
                <path fill="#FFF" d="M949.462 26.957l-10.851-15.16a1.064 1.064 0 0 1 0-1.237l2.456-3.432a1.064 1.064 0 0 1 1.73 0l10.43 14.57 1.394 7.402-5.16-2.143z"/>
                <g transform="translate(937.57 5.855)">
                    <mask id="l" fill="#fff">
                        <use xlink:href="#k"/>
                    </mask>
                    <path fill="#F9D367" d="M16.987-1.892H.649V17.11l11.085 3.949 3.954-5.08z" mask="url(#l)"/>
                </g>
                <g transform="translate(937.57 5.855)">
                    <mask id="n" fill="#fff">
                        <use xlink:href="#m"/>
                    </mask>
                    <path fill="#FFC100" d="M14.936 16.846L2.382-.98l-.355.503L14.582 17.35z" mask="url(#n)"/>
                </g>
                <g transform="translate(937.57 5.855)">
                    <mask id="p" fill="#fff">
                        <use xlink:href="#o"/>
                    </mask>
                    <path fill="#B3B3B3" d="M18.352 21.349l-1.63-2.315-3.166 4.493 1.631 2.315z" mask="url(#p)"/>
                </g>
                <path fill="#FFF" fill-rule="nonzero" d="M933.621 53.044a1.07 1.07 0 0 1 .124-2.135l27.012 1.572a1.07 1.07 0 1 1-.124 2.135l-27.012-1.572zM933.621 58.349a1.07 1.07 0 0 1 .124-2.137l27.012 1.572a1.07 1.07 0 1 1-.124 2.136l-27.012-1.571z"/>
                <path fill="#0359FF" d="M1182.85 126.51s-25.757 65.058-50.615 65.397c-16.776.229-18.168-14.093-7.815-22.801 5.149-4.33 27.055-35.182 33.995-39.86 11.597-7.818 24.435-2.737 24.435-2.737z"/>
                <path fill="#D6D6E6" d="M1063.043 160.425c3.354 1.67 5.622 2.61 8.582 3.935.595.265 1.253-.181 1.169-.822-.102-.782-.69-1.88-2.651-3.117-3.877-2.448-7.296-4.532-8.676-3.373-1.196 1.006-.72 2.234 1.576 3.377z"/>
                <path fill="#D6D6E6" d="M1084.893 164.301c1.326-5.174-2.166-10.353-7.41-11.346-4.375-.829-9.574-2.774-12.316-.469-5.073 4.267-1.388 15.71 9.94 15.86 4.482.06 9.076-1.276 9.786-4.045z"/>
                <path fill="#D6D6E6" d="M1051.156 154.13s8.494-1.509 15.305-2.62c6.346-1.034 1.425 4.885 1.425 4.885l-13.675.728c-1.673.029-3.055-2.993-3.055-2.993zM1063.69 166.46c3.353 1.67 3.522 2.121 6.483 3.446.595.266 1.252-.181 1.168-.82-.102-.784-.795-1.903-2.756-3.141-3.877-2.447-5.091-4.022-6.471-2.862-1.198 1.006-.721 2.233 1.575 3.377z"/>
                <path fill="#D6D6E6" d="M1063.365 163.443c3.355 1.67 5.622 2.61 8.583 3.934.595.266 1.253-.18 1.17-.822-.103-.782-.692-1.879-2.653-3.117-3.877-2.447-7.294-4.532-8.675-3.373-1.196 1.007-.721 2.234 1.575 3.378z"/>
                <path stroke="#67667A" stroke-linecap="round" stroke-linejoin="round" stroke-width=".5" d="M1062.114 163.083c-1.198 1.006-.722 2.233 1.575 3.377 3.354 1.67 5.001 2.632 6.484 3.446 1.66.912 1.646-2.457-.4-3.552M1062.672 156.555c-2.534 1.006-1.926 2.727.37 3.87 3.355 1.67 5.623 2.61 8.583 3.935.595.265 1.253-.181 1.169-.822-.102-.783-.69-1.88-2.651-3.117"/>
                <path stroke="#67667A" stroke-linecap="round" stroke-linejoin="round" stroke-width=".5" d="M1076.884 154.817c-4.012.013-11.425 1.932-11.425 1.932s-.41 2.463 3.792 2.79c3.686.287 5.645.145 5.645.145s.31 2.795 1.814 4.586M1058.147 156.753l7.145-.43M1061.79 160.065c-1.196 1.007-.721 2.234 1.576 3.378 3.354 1.67 5.621 2.61 8.583 3.934.594.266 1.252-.18 1.168-.822-.069-.524-.355-1.19-1.127-1.944"/>
                <path fill="#8DAAF5" d="M1162.051 202.509l-14.51 111.063-7.012 77.331 25.286 4.456 23.805-183.256s-25.592-29.972-27.569-9.594z"/>
                <g transform="translate(1152.723 195.66)">
                    <mask id="r" fill="#fff">
                        <use xlink:href="#q"/>
                    </mask>
                    <path fill="#A7C5FF" d="M18.498 200.595l25.766 4.541c1.937-7.409 5.442-39.028 7.49-65.07 2.914-37.081 8.482-63.786 14.966-110.532 6.483-46.746-33.52-15-33.52-15l-7.279 106.36-7.423 79.7z" mask="url(#r)"/>
                </g>
                <path fill="#037BFF" d="M1189.613 119.713s23.693-2.543 29.819 9.804c3.021 6.097.269 26.764.582 48.19.316 21.636.357 39.253.357 39.253l-60.855.047s-2.83-15.08-3.49-65.26c-.144-10.975-1.353-26.273 19.78-29.313 3.349-.482 13.807-2.721 13.807-2.721z"/>
                <path fill="#0651E2" d="M1181.479 125.844l6.232 5.523s6.732-6.383 5.735-13.02c0 0-2.526 4.99-11.967 7.497zM1176.997 121.603s1.79 3.167 4.4 4.2l-4.272 3.907s-3.029-5.334-.128-8.107z"/>
                <path fill="#0359FF" d="M1208.49 143.28c-3.668-10.964-4.321-25.121 5.916-19.458 10.239 5.662 20.353 30.978 24.16 52.388 2.76 15.538-1.454 28.663-16.995 26.02-5.947-1.01-2.643-19.08-5.814-34.485-2.498-12.125-7.267-24.466-7.267-24.466z"/>
                <path stroke="#222F49" stroke-linecap="round" stroke-width="2" d="M1211.683 153.021l11.085 39.956"/>
                <path fill="#D6D6E6" d="M1193.905 120.817s-5.035 5.674-12.112 5.188c-4.075-.28-5.035-3.519-5.06-7.607l-1.483-15.522 15.01-6.966 3.645 24.907z"/>
                <path fill="#D6D6E6" d="M1193.774 91.264c-.38 2.12-.339 8.23-4.044 13.651-5.106 7.474-11.656 11.473-20.501 10.155-6.643-.99-3.96-17.742-2.982-23.488 1.423-8.367 2.791-11.553 5.644-13.77 2.65-2.06 6.201-2.759 10.676-2.555 9.771.444 12.552 8.506 11.207 16.007z"/>
                <path fill="#BBBACE" d="M1170.457 101.466l-2.69-.831s2.938-11.916 2.757-15.621c-.18-3.705-2.143-5.121-2.143-5.121s-4.589 11.77-3.205 27.831c0 0 5.276-.89 5.281-6.258z"/>
                <path fill="#121212" d="M1164.033 70.548c-3.92 2.721-1.588 16.694 7.144 12.978 5.021-2.136 6.329 2.273 11.737 1.69 0 0-.143.205-.321.575-1.396 2.908-.056 6.367 2.851 7.753 1.568.746.225 5.023.361 6.95.253 3.572 6.017 1.784 6.017 1.784s9.038-18.735 2.086-20.796c0 0-.09-6.386-9.327-7.024-2.396-.166-1.471-3.167-5.481-4.355-4.011-1.189-6.642 3.275-6.642 3.275s-3.265-6.41-8.425-2.83z"/>
                <path fill="#D6D6E6" d="M1187.125 98.817c-1.553 2.302-4.052 3.328-5.585 2.293-1.531-1.035-1.513-3.74.039-6.042 1.553-2.302 4.052-3.329 5.583-2.293 1.533 1.035 1.515 3.74-.037 6.042z"/>
                <path fill="#FFF" d="M1167.404 103.684s3.6-.086 6.532-.991c0 0-2.076 3.623-4.601 3.312-1.314-.163-1.931-2.32-1.931-2.32z"/>
                <path fill="#3B387D" fill-rule="nonzero" d="M1174.078 99.32c-2.256-.24-3.896-2.254-3.656-4.497.24-2.244 2.265-3.868 4.523-3.629 2.256.24 3.895 2.255 3.656 4.498-.24 2.243-2.266 3.867-4.523 3.627zm3.48-3.74c.178-1.666-1.042-3.165-2.725-3.343-1.683-.179-3.192 1.03-3.37 2.696-.177 1.667 1.044 3.165 2.727 3.344 1.682.179 3.191-1.03 3.368-2.697z"/>
                <path fill="#3B387D" fill-rule="nonzero" d="M1171.067 93.996a.524.524 0 1 1-.606.854 1.576 1.576 0 0 0-.182-.105 1.462 1.462 0 0 0-.559-.17.513.513 0 0 0-.448.172.524.524 0 1 1-.777-.703 1.552 1.552 0 0 1 1.288-.515c.336.02.663.125.97.281.14.072.247.138.314.186z"/>
                <path fill="#3B387D" fill-rule="nonzero" d="M1169.102 95.107c-.64 2.157-2.843 3.419-4.927 2.8-2.084-.616-3.246-2.875-2.607-5.032.639-2.158 2.842-3.42 4.927-2.802 2.085.618 3.246 2.876 2.607 5.034zm-1.005-.298c.477-1.612-.38-3.28-1.9-3.73-1.519-.451-3.147.48-3.625 2.093-.477 1.612.381 3.28 1.901 3.731 1.518.45 3.147-.481 3.624-2.094zM1184.191 93.137a.524.524 0 0 1 .166 1.035l-5.864.94a.524.524 0 0 1-.166-1.034l5.864-.94z"/>
                <path fill="#121212" d="M1175.026 95.173c.03.548-.252 1.009-.628 1.03-.376.019-.704-.408-.734-.956-.03-.548.252-1.008.629-1.029.376-.02.704.407.733.955z"/>
                <path stroke="#121212" d="M1173.458 89.04s2.45-.63 4.29 1.26"/>
                <path fill="#121212" d="M1167.779 94.321c.029.548-.253 1.009-.629 1.028-.376.021-.704-.406-.733-.954-.03-.548.252-1.009.628-1.03.376-.02.704.408.734.956z"/>
                <path stroke="#121212" d="M1169.352 88.889s-1.043-.938-2.476.133"/>
                <path fill="#D6D6E6" d="M1077.044 153.296c-3.105-1.204-.493 12.492 3.64 14.405 12.402 5.739 29.712 18.746 42.274 21.288 26.447 5.352 17.456-18.42 1.98-23.171-19.632-6.026-47.894-12.522-47.894-12.522z"/>
                <path fill="#0359FF" d="M1123.219 190.789l-29.177-12.268 3.908-20.925 33.504 8.437c7.632 2.272 17.818 7 13.696 17.368-4.123 10.367-14.738 9.583-21.931 7.388z"/>
                <path fill="#B6B5CE" d="M1213.27 178.617s-43.696-7.435-49.454-7.703c-5.757-.267-15.065 4.349-7.965 8.155 10.617 5.692 52.332 17.583 52.332 17.583 12.344 1.81 16.632-11.922 5.607-17.768-.17-.09-.343-.18-.52-.267z"/>
                <path fill="#0359FF" d="M1216.179 202.198l-36.497-9.56.98-21.264 40.184 7.153c7.873 1.192 18.616 4.466 15.964 15.303-2.653 10.838-13.204 9.545-20.631 8.368z"/>
                <path stroke="#222F49" stroke-linecap="round" stroke-width="2" d="M1218.7 202.591l-39.078-9.945"/>
                <path fill="#B6B5CE" d="M1166.955 170.882c-3.795-.766-18.397-.406-20.569 1.984-2.17 2.39 5.455 9.443 5.455 9.443s13.767.47 16.45-.727c5.455-2.436 12.228-7.964-1.336-10.7z"/>
                <path fill="#B6B5CE" d="M1146.921 172.394c-2.684.883-6.395 3.81-10.207 7.443-.59.563-.106 1.542.699 1.417a6.953 6.953 0 0 0 4.031-2.13c1.733-1.831 7.798-3.55 8.365-4.525.567-.975-.31-3.053-2.888-2.205z"/>
                <path fill="#B6B5CE" d="M1147.264 174.943c-2.666.876-6.343 3.766-10.126 7.363-.614.586-.107 1.622.728 1.478a6.944 6.944 0 0 0 3.92-2.11c1.733-1.833 7.798-3.55 8.365-4.526.567-.975-.31-3.053-2.887-2.205z"/>
                <path fill="#B6B5CE" d="M1149.21 176.077c-2.587.851-6.128 3.6-9.793 7.05-.745.702-.067 1.928.924 1.68a6.934 6.934 0 0 0 3.392-2c1.733-1.831 7.797-3.55 8.364-4.525.567-.975-.31-3.053-2.888-2.205z"/>
                <path stroke="#67667A" stroke-linecap="round" stroke-linejoin="round" stroke-width=".5" d="M1149.21 176.077c-2.587.851-6.128 3.6-9.793 7.05"/>
                <path fill="#B6B5CE" d="M1151.06 178.722c-2.273.22-4.652 1.727-8.645 4.892-.556.442-.498 1.259.192 1.425 1.194.29 2.821-.08 4.078-.873 3.145-1.983 8.385-1.748 9.152-2.575.767-.826-2.077-3.13-4.776-2.87z"/>
                <path stroke="#67667A" stroke-linecap="round" stroke-linejoin="round" stroke-width=".5" d="M1139.325 180.3s5.125-4.777 8.671-6.027M1142.428 183.483s5.852-4.685 7.862-4.557"/>
                <path fill="#D6D6E6" d="M1113.214 475.547l-2.308-.358c1.19-3.496.206-6.198-3.747-3.285-1.402 1.031-4.092 2.073-4.092 2.073l-17.244-2.668c1.114-3.288 5.455-2.838 10.57-5.633 11.344-6.205 26.796-70.36 36.461-68.164 19.065 4.333 11.866 25.064-8.894 54.039-3.86 5.387-10.746 23.996-10.746 23.996z"/>
                <path fill="#121212" d="M1103.467 456.277l17.087 1.503c-3.538 7.49-7.34 17.767-7.34 17.767l-2.31-.358c1.193-3.496.208-6.198-3.745-3.285-1.402 1.031-4.091 2.073-4.091 2.073l-17.244-2.667c1.113-3.29 5.454-2.839 10.568-5.634 2.226-1.217 4.608-4.662 7.075-9.399z"/>
                <path fill="#D6D6E6" d="M1180.004 462.327l-1.573 1.722c-2.254-2.928-5.049-3.604-4.813 1.299.086 1.737-.539 4.552-.539 4.552l-11.77 12.876c-2.122-2.747.657-6.112 1.16-11.915 1.114-12.88-43.778-61.266-36.593-68.095 14.167-13.468 27.45 4.006 40.09 37.33 2.35 6.195 14.038 22.23 14.038 22.23z"/>
                <path fill="#121212" d="M1169.27 446.381c4.28 7.092 10.734 15.946 10.734 15.946l-1.573 1.723c-2.254-2.929-5.049-3.605-4.813 1.298.086 1.737-.535 4.552-.535 4.552l-11.774 12.876c-2.122-2.747.657-6.111 1.16-11.915.218-2.525-1.333-6.417-3.913-11.092l10.714-13.388z"/>
                <path fill="#D6D6E6" d="M1177.032 295.59s-8.248 34.545-14.749 46.515c-6.503 11.971-18.377 5.733-14.031-5.13 2.74-6.84 3.421-16.416 15.056-36.254 5.087-8.674 13.724-5.131 13.724-5.131z"/>
                <path fill="#D6D6E6" d="M1131.487 292.513c-1.273-2.317-6.671 7.33-5.133 10.603 4.612 9.818 11.113 30.687 17.452 38.648 13.344 16.758 19.858-1.555 13.344-10.26-9.765-13.055-25.663-38.991-25.663-38.991z"/>
                <path fill="#D6D6E6" d="M1130.26 303.264c3.446-2.466 3.967-7.394 1.288-10.674-2.237-2.738-4.402-6.575-7.246-6.575-5.262 0-8.862 8.83-2.055 14.707 2.693 2.326 6.168 3.86 8.013 2.542z"/>
                <path fill="#D6D6E6" d="M1114.948 279.859s5.932 3.42 10.639 6.225c4.384 2.612-1.627 3.693-1.627 3.693l-8.684-6.541c-1.032-.837-.328-3.377-.328-3.377zM1116.271 293.745c1.188 2.728 1.06 3.088 2.184 5.405.224.465.853.53 1.127.098.339-.528.49-1.562-.071-3.315-1.107-3.466-1.042-5.042-2.472-5.042-1.243-.001-1.578.987-.768 2.854z"/>
                <path fill="#D6D6E6" d="M1117.617 291.748c1.184 2.727 2.083 4.456 3.206 6.772.225.466.853.53 1.131.098.336-.527.54-1.494-.02-3.247-1.11-3.466-2.124-6.477-3.554-6.477-1.239-.001-1.577.988-.763 2.854z"/>
                <path fill="#D6D6E6" d="M1118.958 289.75c1.188 2.728 2.087 4.456 3.21 6.773.225.466.854.53 1.128.098.338-.527.539-1.494-.022-3.247-1.105-3.466-2.119-6.478-3.549-6.478-1.242 0-1.577.988-.767 2.855z"/>
                <path stroke="#585B5E" stroke-linecap="round" stroke-linejoin="round" stroke-width=".5" d="M1117.039 290.89c-1.242 0-1.578.989-.768 2.855 1.188 2.728 1.698 4.153 2.184 5.405.541 1.4 2.254-.651 1.57-2.361"/>
                <path stroke="#585B5E" stroke-linecap="round" stroke-linejoin="round" stroke-width=".5" d="M1118.38 288.894c-1.239-.001-1.577.987-.763 2.854 1.184 2.727 2.083 4.456 3.207 6.773.224.465.852.53 1.131.097.225-.353.388-.904.306-1.756M1120.71 287.212c-2.055-.684-2.562.673-1.752 2.54 1.188 2.726 2.086 4.455 3.21 6.772.225.465.853.53 1.128.097.338-.527.542-1.494-.018-3.247"/>
                <path stroke="#585B5E" stroke-linecap="round" stroke-linejoin="round" stroke-width=".5" d="M1130.231 293.414c-2.443-2.04-7.927-4.662-7.927-4.662s-1.505 1.287.881 3.632c2.091 2.057 3.354 2.97 3.354 2.97s-1.235 1.856-1.235 3.711M1117.855 285.02l4.563 3.39M1150.992 323.295l6.155 8.405"/>
                <path fill="#121212" d="M1161.599 256.944c-8.555-.685-6.159 17.1-13.347 32.49 0 0 4.167 3.044 9.757 3.76.503.063 2.22-4.101 2.22-4.101s.16 4.255.592 4.243c1.79-.054 3.67-.393 5.569-1.165 6.461-2.631 12.658-2.052 15.398-5.814 2.736-3.763-11.634-28.73-20.19-29.413z"/>
                <path fill="#F0EBFF" d="M1155.78 311.324l8.898 3.42 9.24-19.837s-4.792-1.71-9.925 3.42c-5.13 5.131-8.213 12.997-8.213 12.997z"/>
                <path fill="#919FF1" d="M1141.197 377.813l25.193 51.834-20.875 16.417s-55.774-66.484-25.84-68.194l21.522-.057z"/>
                <path fill="#B6B5CE" d="M1188.289 290.12s-1.224 5.089-7.757 6.543c-3.76.84-5.498-1.831-6.614-5.518l-4.791-17.442.316-6.499 18.846 22.915z"/>
                <path fill="#A6B3FF" d="M1132.852 380.35a13.127 13.127 0 0 1 5.967-2.18c4.861-.54 13.435-1.202 22.895-1.856l5.018-25.415 35.927-5.031c3.203 6.93 8.648 21.29 10.63 32.29.156.46.264.944.32 1.445.056.521.108 1.067.153 1.633.277 2.257.36 4.3.189 6.016-.024.23-.072.45-.147.658-.658 8.971-4.646 18.837-19.015 18.837-11.006 0-30.4-.293-48.435-.63-4.567 19.358-16.603 48.39-16.603 48.39l-22.434-13.53s11.264-28.433 15.924-42.185l1.902-6.537c2.287-6.75 4.976-10.404 7.71-11.904z"/>
                <path fill="#6B48D6" d="M1173.575 290.12s-.07.342 10.537-5.473l5.546 7.866c-3.082 7.525-15.397 4.447-15.397 4.447l-.686-6.84z"/>
                <path fill="#D6D6E6" d="M1181.788 264.468c0 15.196-3.125 19.822-11.716 22.916-9.5 3.42-11.188-4.988-13.95-18.812-2.39-11.979 1.649-13.519 10.611-15.732 8.958-2.214 15.055 4.446 15.055 11.628z"/>
                <path fill="#121212" d="M1182.813 273.703c-1.343 1.713-7.187-1.71-7.187-1.71-13.343-1.71-8.55-17.785-8.55-17.785s13.188-7.497 17.106 7.182c2.736 10.26-1.37 12.313-1.37 12.313z"/>
                <path fill="#121212" d="M1173.575 252.498s-1.32 2.778-7.87 10.26c-2.397 2.736-13.054 2.114-14.028 2.052 0 0 .917-1.13 2.736-4.104 3.765-6.157 7.87-11.286 19.162-8.208z"/>
                <path fill="#6B48D6" d="M1165.363 358.18l40.718-3.762v-46.172s-8.691-15.6-11.634-16.417c-6.158-1.71-20.529 2.394-20.529 2.394s-4.466 7.755-8.213 12.655c-3.96 5.177-4.396 9.174 0 17.785l-.342 33.518z"/>
                <path fill="#F0EBFF" d="M1188.117 338.002l18.131.169s3.96-39.532-2.732-44.12c-6.693-4.585-15.227-3.932-15.227-3.932l-.172 47.883z"/>
                <path fill="#D6D6E6" d="M1194.104 293.54l24.981 49.592c12.32 21.547 18.476 4.104 14.027-5.473-8.922-19.214-15.055-34.201-21.213-40.357-7.114-7.11-17.795-3.762-17.795-3.762z"/>
                <path fill="#D6D6E6" d="M1191.025 344.158c-1.07-.173-5.844 9.278.342 10.602 9.583 2.053 16.805 2.365 29.769 1.368 13.685-1.051 18.677-11.087 6.86-16.176-2.992-1.29-34.07 4.674-36.971 4.206z"/>
                <path stroke="#585B5E" stroke-linecap="round" stroke-linejoin="round" stroke-width=".5" d="M1214.635 340.737l8.898-1.025"/>
                <path fill="#A5A8AA" d="M1175.609 351.007s3.26 3.259 3.882 4.5c.62 1.242 2.012-.198 1.084-2.348-.928-2.152-2.479-3.393-4.966-2.152z"/>
                <path fill="#C4C4C4" d="M1179.18 347.748s-5.9 2.173-4.655-.931c.62-1.552 6.36-4.69 8.073-3.725 1.712.964-.931 4.656-.931 4.656h-2.487z"/>
                <path fill="#C4C4C4" d="M1179.801 345.265s-5.276 1.552-4.655-.932c.403-1.62 6.36-4.688 8.073-3.725 1.712.964-.931 4.657-.931 4.657h-2.487z"/>
                <path fill="#C4C4C4" d="M1181.046 342.47c-3.418 1.864-5.28.622-4.66-.93.621-1.552 5.12-2.825 6.833-1.863.855.483.935 1.181.796 1.759-.125.53-.618.89-1.163.897-.372.005-1.042-.28-1.806.138z"/>
                <path fill="#D6D6E6" d="M1194.4 345.886s-8.078-6.209-12.112-6.518c-4.38-.338-4.35 11.484-4.35 11.484s9.63 3.415 13.354 4.035c3.825.636 9.476-5.87 3.108-9.001z"/>
                <path fill="#C4C4C4" d="M1177.939 350.852l-.93 1.242s2.66 2.66 1.58 5.27a.456.456 0 0 1-.772.11c-1.302-1.57-5.051-6.267-4.538-7.553.622-1.552 6.675-5.618 8.388-4.656 1.712.963-1.245 5.587-1.245 5.587h-2.483z"/>
                <path stroke="#585B5E" stroke-linecap="round" stroke-linejoin="round" d="M1174.67 348.355s2.805-2.625 5.905-3.236M1175.398 345.653s2.387-2.096 5.491-3.027M1176.073 342.937s3.886-2.794 6.126-2.503M1178.096 353.801s-.275-1.155-.935-1.862l.624-.932"/>
                <path fill="#121212" d="M1173.575 260.706s4.107 24.625 6.843 27.361c.767.766 2.47.728 4.553.172.56-.149.238-4.276.238-4.276s2.166 3.48 2.502 3.343c4.99-2.022 10.7-5.919 11.526-8.815 0 0-11.352-7.958-13.685-14.023-3.421-8.892-10.61-16.417-11.977-3.762z"/>
                <path fill="#D6D6E6" d="M1179.202 269.522c-.154 2.839-1.808 5.389-3.7 5.696-1.887.308-3.294-1.744-3.14-4.583.158-2.839 1.813-5.389 3.7-5.697 1.89-.307 3.297 1.746 3.14 4.584z"/>
                <path fill="#FFF" d="M1161.517 280.356s.2 1.136 1.698.991c1.495-.146 3.928-1.627 4.038-2.348.108-.721-2.69.705-3.77.545-1.082-.162-1.966.812-1.966.812z"/>
                <path fill="#121212" d="M1160.357 280.718s.757.112 2.387-.419c1.627-.531 4.124-.546 5.697-1.86 0 0-1.969.48-3.9.192-1.137-.17-2.646.865-3.313 1.443-.668.577-.87.644-.87.644z"/>
                <path fill="#121212" d="M1161.549 280.508s-.283 1.894 1.613 2.176c1.894.283 4.259-2.141 4.449-3.629 0 0-3.68 2.71-6.062 1.453zM1165.962 270.883c.15.48-.036.967-.42 1.089-.386.12-.822-.171-.972-.65-.15-.481.036-.969.421-1.09.386-.12.82.17.971.65zM1159.008 272.386c.15.48-.038.968-.42 1.09-.386.12-.821-.17-.97-.651-.154-.481.035-.968.42-1.089.386-.121.82.17.97.65z"/>
                <path stroke="#121212" stroke-linecap="round" stroke-linejoin="round" d="M1162.847 267.14c.775-.323 1.87-.478 3.147.197M1159.201 268.162s-1.46-.876-2.736.291"/>
                <path fill="#F0EBFF" d="M1206.651 319.965l15.313-5.904s-5.13-19.197-19.305-22.232c-9.579-2.052-10.264 1.71-10.264 1.71l14.256 26.426z"/>
                <path stroke="#BCA6FF" stroke-linecap="round" stroke-linejoin="round" d="M1207.359 319.282l-7.871-14.051"/>
                <path fill="#BCA6FF" d="M1188.289 290.12l5.815 19.494-4.446 6.498 2.737 3.763-4.449 18.127z"/>
                <path fill="#3D1E84" d="M1119.368 378.316h71.115c.788 0 1.427-.639 1.427-1.426v-47.558a1.826 1.826 0 0 0-1.827-1.826h-70.315c-1.01 0-1.827.818-1.827 1.826v47.558c0 .787.64 1.426 1.427 1.426z"/>
                <path fill="#FFF" d="M1149.223 353.4a5.704 5.704 0 0 0 11.406 0 5.704 5.704 0 0 0-11.406 0z"/>
                <path fill="#FFF" fill-rule="nonzero" d="M1290.792 135.326a2.853 2.853 0 1 0 .001-5.706 2.853 2.853 0 0 0-.001 5.706z" opacity=".604"/>
                <path fill="#D6D6E7" d="M1360.86 332.014l-15.113 15.106s-12.954-2.791-15.097-14.205l18.12-11.978c3.319-2.676 6.38-3.973 9.718-1.32 4.335 3.443 6.388 8.587 2.372 12.397z"/>
                <path fill="#341A70" d="M1343.331 344.862l7.166 64.22a11.7 11.7 0 0 1-7.76 13.483c-6.165 2.052-11.83-4.915-13.84-11.091l-13.943-63.594c-2.664-8.556 2.997-17.455 11.879-18.673 7.502-1.03 14.887 8.259 16.498 15.655z"/>
                <path fill="#B6B5CE" d="M1373.404 396.845c12.512-3.888 13.014 2.524 7.827 9.344-5.188 6.821-31.935 15.524-31.935 15.524-13.235 6.541-24.692-6.024-15.946-15.62 4.431-4.862 29.635-6.01 40.054-9.248z"/>
                <path fill="#B6B5CE" d="M1378.342 395.084c4.092-.296 17.754 1.52 19.545 4.428 1.79 2.91-7.534 8.742-7.534 8.742s-14.422-2.21-16.98-3.98c-5.2-3.598.879-8.894 4.97-9.19z"/>
                <path fill="#B6B5CE" d="M1397.424 398.918c2.62 1.443 5.908 5.21 9.162 9.732.504.7-.192 1.623-1.005 1.334a7.36 7.36 0 0 1-3.78-3.002c-1.443-2.242-7.419-5.216-7.817-6.34-.399-1.124.922-3.11 3.44-1.724z"/>
                <path fill="#B6B5CE" d="M1396.566 401.498c2.602 1.434 5.861 5.156 9.092 9.635.526.729-.206 1.705-1.047 1.39a7.36 7.36 0 0 1-3.666-2.96c-1.444-2.242-7.42-5.217-7.818-6.34-.398-1.124.922-3.11 3.439-1.725z"/>
                <path fill="#B6B5CE" d="M1394.317 402.296c2.526 1.39 5.672 4.94 8.809 9.242.637.876-.31 2.015-1.294 1.563a7.335 7.335 0 0 1-3.136-2.742c-1.444-2.242-7.42-5.215-7.819-6.339-.398-1.124.923-3.11 3.44-1.724z"/>
                <path stroke="#535659" stroke-linecap="round" stroke-linejoin="round" stroke-width=".693" d="M1394.317 402.296c2.526 1.39 5.672 4.94 8.809 9.242"/>
                <path fill="#B6B5CE" d="M1391.87 404.68c2.324.673 4.505 2.707 8.039 6.776.492.568.271 1.406-.48 1.444-1.3.065-2.92-.637-4.074-1.707-2.884-2.677-8.384-3.46-9.02-4.469-.636-1.009 2.776-2.843 5.536-2.044z"/>
                <path fill="#B6B5CE" d="M1378.642 404.767s8.925 9.337 11.968 10.22c3.042.884 2.219-2.023-.543-4.38-2.762-2.36-2.792-8.63-5.743-9.19-2.95-.562-5.682 3.35-5.682 3.35z"/>
                <path fill="#A6B3FF" d="M1286.89 456.916c14.014 1.314 49.016.436 69.887 0 8.98-.188 9.706-7.31 9.749-16.425.043-9.116-92.985-16.837-92.985-16.837s-7.12 31.344 13.35 33.262z"/>
                <path stroke="#535659" stroke-linecap="round" stroke-linejoin="round" stroke-width=".693" d="M1403.778 408.62s-4.398-5.967-7.843-7.961M1399.921 411.318s-5.17-6.013-7.289-6.275"/>
                <path fill="#3D1E84" d="M1322.91 429.026s28.21-75.193 25.187-82.913c-3.022-7.72-14.44-15.106-14.44-15.106s-23.845-5.706-37.614 23.833c-12.51 26.84-24.516 69.485-24.516 69.485l51.383 4.7z"/>
                <path fill="#A6B3FF" d="M1339.646 457.143l.645-24.09s30.583-.228 30.643 14.687l2.754 31.351a433.018 433.018 0 0 0-33.443-22.113l-.6.165z"/>
                <path fill="#D6D6E7" d="M1372.29 304.465c4.751 2.7 8.214 8.198 6.3 12.89l-2.1 6.433c-.17.52-.174 1.08-.012 1.602l.875 2.826a.945.945 0 0 1-1.23 1.052l-1.62-.54s-1.142 1.773-3.107 4.486c-2.436 3.366-6.123 7.616-10.293 5.077-4.841-2.949-14.063-15.567-12.148-20.26 0 0 .022-5.355 4.488-11.733s11.884-5.787 18.847-1.833z"/>
                <path fill="#121212" d="M1379.025 313.321c-2.186.464-4.53.3-6.755-.606-.59-.24-1.15-.525-1.677-.847-.544.993-1.302 2.013-2.304 3.057-3.94 4.1-12.52 6.187-19.489 5.739-.17-1.02-.137-1.919.155-2.633 0 0 .022-5.355 4.489-11.732 2.367-3.383 5.566-4.806 9.087-4.806h.001c3.118 0 6.489 1.115 9.757 2.973 3.427 1.947 6.184 5.35 6.736 8.855z"/>
                <path fill="#D6D6E6" d="M1357.333 315.017c-1.237 2.476-.862 5.946.837 7.749 1.7 1.803 4.08 1.258 5.318-1.219 1.239-2.475.864-5.945-.836-7.748s-4.08-1.257-5.319 1.218z"/>
                <path fill="#3D1E84" d="M1330.878 332.758s-19.206-3.66-27.111 12.012c-4.45 8.82-15.256 35.832-17.508 51.34-2.978 20.495 19.46 13.39 21.203 7.068l23.416-70.42z"/>
                <path fill="#3D1E84" d="M1350.377 349.733s-10.565-29.25-29.482-22.754c-6.672 7.903 14.37 22.083 29.482 22.754z"/>
                <path stroke="#341A70" stroke-linecap="round" stroke-linejoin="round" d="M1311.323 388.576l15.204-39.612M1323.27 338.468s11.635 10.498 25.404 10.498"/>
                <path stroke="#585B5E" stroke-linecap="round" stroke-linejoin="round" d="M1368.584 325.636s-.336 2.014 2.016 3.693"/>
                <path fill="#121212" d="M1374.003 323.17c-.32.454-.825.65-1.128.437-.304-.214-.29-.755.03-1.21.32-.455.826-.651 1.129-.437.303.213.289.754-.031 1.21z"/>
                <path stroke="#121212" stroke-linecap="round" stroke-linejoin="round" d="M1374.461 317.412s1.68-.336 2.015 1.007"/>
                <path fill="#D6D6E6" d="M1343.06 398.814c10.521 2.89 9.044 9.613.765 11.833-8.278 2.22-48.096-1.473-48.096-1.473-14.471-2.925-14.83-16.514-2.037-18.752 6.483-1.134 38.847 5.502 49.368 8.392z"/>
                <path fill="#D6D6E6" d="M1361.36 405.706c1.699 2.963-7.8 8.507-7.8 8.507s-14.348-2.653-16.85-4.502c-5.088-3.755-.273-10.57 3.825-10.74 4.098-.17 19.124 3.774 20.824 6.735z"/>
                <path fill="#D6D6E6" d="M1360.913 405.097c2.575 1.524 5.746 5.39 8.86 10.01.481.715-.244 1.617-1.047 1.303a7.357 7.357 0 0 1-3.685-3.117c-1.373-2.286-7.255-5.441-7.618-6.577-.365-1.136 1.018-3.081 3.49-1.619z"/>
                <path fill="#D6D6E6" d="M1359.978 407.652c2.556 1.512 5.7 5.333 8.79 9.909.504.744-.257 1.697-1.089 1.358a7.357 7.357 0 0 1-3.573-3.072c-1.374-2.286-7.256-5.442-7.62-6.578-.363-1.135 1.018-3.08 3.492-1.617z"/>
                <path fill="#D6D6E6" d="M1357.704 408.378c2.482 1.469 5.517 5.113 8.52 9.51.611.894-.37 2.005-1.339 1.522a7.335 7.335 0 0 1-3.052-2.837c-1.374-2.285-7.256-5.441-7.62-6.577-.363-1.135 1.02-3.08 3.491-1.618z"/>
                <path stroke="#535659" stroke-linecap="round" stroke-linejoin="round" stroke-width=".693" d="M1357.704 408.378c2.482 1.469 5.517 5.113 8.52 9.51"/>
                <path fill="#D6D6E6" d="M1355.186 410.687c2.301.744 4.42 2.843 7.825 7.02.475.582.229 1.413-.523 1.428-1.3.026-2.9-.726-4.02-1.831-2.799-2.764-8.273-3.715-8.878-4.744-.604-1.028 2.863-2.757 5.596-1.873z"/>
                <path stroke="#535659" stroke-linecap="round" stroke-linejoin="round" stroke-width=".693" d="M1366.966 414.991s-4.211-6.1-7.594-8.199M1363.028 417.57s-4.982-6.17-7.092-6.498"/>
                <path stroke="#3D1E84" stroke-linecap="round" stroke-linejoin="round" stroke-width="6" d="M1413.32 398.145l-28.996 40.72-50.602-8.918"/>
                <path fill="#000" fill-opacity=".2" d="M1162.98 277.807l-1.635-.045s.081-10.138-3.003-10.138c-1.384 0-2.408 1.235-2.408 1.235s1.36 8.018 3.313 13.439c1.593 4.424 3.83 5.42 4.12 5.6 0 0-1.234-6.73-.387-10.09z"/>
                <path fill="#FFCB48" d="M1032.818 247.394s16.432 49.418 19.813 59.415c3.383 9.997-13.097 21.82-19.478 9.063l-25.906-54.965c-4.569-7.71-1.116-17.675 7.244-20.91 7.063-2.733 15.05.572 18.327 7.397z"/>
                <path fill="#28242F" d="M1055.485 374.177c-8.334-1.993-16.237-4.184-23.662-6.688a583.923 583.923 0 0 1-7.297-2.514 70.2 70.2 0 0 0-.886.16c-11.887.117-26.686.328-33.759-.334-20.468-1.92-19.508-32.926-19.508-32.926h82.636c3.246 0 6.273.936 8.826 2.554 6.936 4.159 10.476 13.545 5.746 21.706a16.565 16.565 0 0 1-1.619 2.47l-10.477 15.572z"/>
                <path fill="#FFCB48" d="M1032.146 247.394c-6.63-10.04-11.166-12.303-31.39-13.018-27.87-.987-27.514 3.164-32.084 14.361-4.57 11.197-17.809 83.457-17.809 83.457l65.834 3.148s-4.21-15.768 2.015-36.925c5.037-17.12 17.258-45.232 13.434-51.023z"/>
                <path fill="#B6B5CE" d="M1002.405 218.377l-4.515 18.61s8.207 12.606 18.217 4.74l.254-20.18-8.917-5.522c-2.34-1.834-4.45-.562-5.039 2.352z"/>
                <path fill="#FFCB48" d="M992.76 234.376s-16.182-3.997-24.088 11.675c-4.449 8.82-23.194 47.038-27.583 62.083-2.317 7.943 3.088 16.053 11.315 16.977a13.336 13.336 0 0 0 14.344-9.706l26.012-81.03z"/>
                <path stroke="#FF9843" stroke-linecap="round" stroke-linejoin="round" stroke-width="1.5" d="M969.176 306.976l17.028-52.302"/>
                <path fill="#FF9843" d="M1010.99 243.966c-3.008 4.597-9.682.68-13.1-3.621-1.292-1.625-1.18-3.894.567-6.152l12.533 9.773z"/>
                <path fill="#FF9843" d="M1010.587 244.223c2.06 3.326 6.21.663 6.782-3.207.326-2.21.528-3.748-1.208-5.396l-5.574 8.603z"/>
                <path stroke="#FF9843" stroke-linecap="round" stroke-linejoin="round" stroke-width="1.5" d="M1004.226 262.746h-14.712"/>
                <path fill="#121212" d="M1059.867 375.387c-9.955-2.262-19.33-4.77-28.044-7.71a588.048 588.048 0 0 1-7.16-2.464l-.026-.093c-19.306.418-42.33 1.119-54.264 0-20.469-1.918-19.51-32.926-19.51-32.926h82.049c6.246-.765 12.948 2.015 16.274 8.758l10.68 34.435z"/>
                <path fill="#A1A0B8" d="M1069.912 265.556c2.975-5.044 11.94-.296 13.465 1.532 2.8 3.354 6.974 8.138-6.465 9.48-5.63.563-9.98-5.967-7-11.012z"/>
                <path fill="#D6D6E6" d="M1075.021 261.444c-3.16 1.288-3.952 2.902-3.587 4.005-.88.88-1.813 2.031-2.8 3.511-6.048 9.066-11.747 13.302-17.475 17.556-4.622 3.434-9.263 6.881-14.118 12.893-10.869 13.46.337 27.157 13.912 17.618 4.587-3.224 5.082-3.89 9.598-9.978 1.71-2.304 3.996-5.387 7.299-9.679 8.822-11.464 12.88-17.947 14.35-21.97.358.047.813-.012 1.419-.215l.775-.256c1.443-.474 3.088-1.016 3.822-1.442a16.5 16.5 0 0 0 1.158-.528c.483-.24 1.147-.547 1.897-.894 3.734-1.726 9.627-4.45 6.208-4.943a3.024 3.024 0 0 0-.169-.019c2.302-.98 3.727-1.947 1.71-2.453-.99-.248-2.627-.036-4.534.424 3.48-1.256 6.932-2.755 4.235-3.431-.82-.206-2.087-.095-3.584.211 1.79-.849 2.66-1.644.894-2.087-2.14-.536-7.32 1.081-11.696 2.712l-5.142 1.612c3.165-1.459 6.97-3.262 6.302-4.264-1.037-1.553-5.258-.511-10.474 1.617z"/>
                <path stroke="#585B5E" stroke-linecap="round" stroke-linejoin="round" stroke-width=".546" d="M1072.077 270.612s4.414-2.245 12.148.39M1094.704 264.995c-2.762.65-9.715 2.592-9.715 2.592M1094.768 261.987s-6.183 1.314-10.546 3.265"/>
                <path stroke="#585B5E" stroke-linecap="round" stroke-linejoin="round" stroke-width=".546" d="M1083.348 263.642c1.641 3.945 2.355 6.642 2.355 6.642l10.303-3.102"/>
                <path fill="#D6D6E6" d="M1014.413 315.89l-.067-.018c-4.558-1.252-8.872-2.083-13.723-3.017-6.345-1.222-13.612-2.622-23.555-5.375-11.7-3.238-21.729-5.497-28.21-4.363-12.794 2.237-11.427 19.183 3.044 22.107 0 0 51.168 5.004 62.178 3.357 3.641.944 7.833 1.788 9.733 2.157 1.928.745 4.361 1.727 5.942 3.288 1.119 1.105 2.718 1.857 4.02 1.832.511-.01.789-.4.764-.832.536.481 1.095.84 1.631 1.107.845.42 1.699-.37 1.5-1.172.44.29.88.511 1.294.68.832.34 1.593-.614 1.09-1.358a90.219 90.219 0 0 0-1.182-1.71c.39.236.776.417 1.14.56.804.313 1.528-.588 1.047-1.303-3.114-4.62-6.285-8.486-8.86-10.01a4.18 4.18 0 0 0-.194-.109c-2.802-2.365-12.307-5.07-17.592-5.82z"/>
                <path stroke="#535659" stroke-linecap="round" stroke-linejoin="round" stroke-width=".693" d="M1038.252 331.714s-4.212-6.1-7.594-8.2M1034.314 334.292s-4.983-6.17-7.091-6.497"/>
                <path fill="#B6B5CE" d="M1023.8 215c-4.308 10.928-17.037 18.042-27.796 14.335-10.874-3.748-4.656-8.928-.728-22.486 2.845-9.818 8.286-13.323 17.454-11.343 9.167 1.98 14.508 10.773 11.07 19.494z"/>
                <g transform="translate(989.02 194.725)">
                    <mask id="t" fill="#fff">
                        <use xlink:href="#s"/>
                    </mask>
                    <path fill="#87879D" d="M13.787 4.844l-6.86 13.027 2.194 1.845-.253 6.843-12.461-2.226S3.339-1.685 7.233-.94c3.894.744 6.554 5.785 6.554 5.785z" mask="url(#t)"/>
                </g>
                <g transform="translate(989.02 194.725)">
                    <mask id="v" fill="#fff">
                        <use xlink:href="#u"/>
                    </mask>
                    <path fill="#121212" d="M43.353 22.693c-2.044.986-6.547 9.873-12.306 8.652-5.76-1.222-3.483-9.621-3.483-9.621-.503-.331-5.334-2.653-5.334-2.653 1.905-3.79 5.334-12.884-3.833-13.44-8.117-.492-7.215-6.6-7.215-6.6s11.685-10.566 25.403.387c13.718 10.955 6.768 23.275 6.768 23.275z" mask="url(#v)"/>
                </g>
                <g transform="translate(989.02 194.725)">
                    <mask id="x" fill="#fff">
                        <use xlink:href="#w"/>
                    </mask>
                    <g mask="url(#x)">
                        <path fill="#121212" d="M-3.74 24.05c2.907-2.748 8.479-7.009 15.293-3.23 7.29 4.044 9.363.635 11.218-2.703.203-.365 1.024 1.22 1.024 1.22s-1.783 23.135-20.468 15.45C-13.56 27.843-6.65 26.796-3.74 24.05z"/>
                        <path fill="#B6B5CE" d="M29.68 21.81c-1.045 2.024-3.237 3.193-4.895 2.61-1.658-.582-2.156-2.695-1.11-4.719 1.045-2.024 3.237-3.192 4.894-2.61 1.66.582 2.156 2.695 1.11 4.72z"/>
                        <path fill="#121212" d="M14.891 14.887c0 .615-.332 1.113-.741 1.113-.41 0-.742-.498-.742-1.113 0-.613.332-1.112.742-1.112s.741.499.741 1.112zM7.843 12.663c0 .614-.332 1.112-.742 1.112s-.742-.498-.742-1.112c0-.616.332-1.113.742-1.113s.742.497.742 1.113z"/>
                        <path fill="#FFF" d="M4.876 20.82s2.967-.742 6.305 1.854c0 0-4.08 2.596-6.305-1.853z"/>
                        <path stroke="#121212" stroke-linecap="round" stroke-linejoin="round" stroke-width=".553" d="M15.633 8.583s1.855 0 2.597 1.484M10.254 7.286s-.371-1.112-1.577-.742"/>
                    </g>
                </g>
            </g>
        </g>
    </g>
</svg>
