<?xml version="1.0" encoding="UTF-8"?>
<svg width="91px" height="31px" viewBox="0 0 91 31" version="1.1" xmlns="http://www.w3.org/2000/svg" xmlns:xlink="http://www.w3.org/1999/xlink">
    <!-- Generator: Sketch 48.1 (47250) - http://www.bohemiancoding.com/sketch -->
    <title>Yahoo_Finance_Logo_2013</title>
    <desc>Created with Sketch.</desc>
    <defs></defs>
    <g id="Page-1" stroke="none" stroke-width="1" fill="none" fill-rule="evenodd">
        <g id="Yahoo_Finance_Logo_2013" style="mix-blend-mode: darken;" transform="translate(-1.000000, -1.000000)">
            <g id="Group" fill-rule="nonzero">
                <g transform="translate(0.450909, 0.423529)">
                    <g id="Shape">
                        <path d="M90.3227273,0.847058824 C91.0272727,0.988235294 91.5204545,1.41176471 91.5204545,2.11764706 C91.5204545,2.32941176 91.45,2.68235294 91.3795455,2.96470588 C90.8863636,5.01176471 89.0545455,12.3529412 88.35,17.2235294 L87.6454545,16.5176471 L89.9,1.55294118 L90.3227273,0.847058824 Z" fill="#000000"></path>
                        <path d="M44.8090909,2.89411765 C43.8931818,3.10588235 42.9068182,3.10588235 42.0613636,2.89411765 L43.5409091,4.37647059 L44.8090909,2.89411765 Z" fill="#000000"></path>
                        <path d="M30.3659091,2.89411765 C31.2818182,3.10588235 32.2681818,3.10588235 33.1136364,2.89411765 L31.6340909,4.37647059 L30.3659091,2.89411765 Z" fill="#000000"></path>
                        <path d="M22.1931818,2.82352941 C24.3068182,8.25882353 27.6886364,16.3764706 29.3795455,19.5529412 L26.9136364,18.7764706 L20.7840909,3.45882353 L22.1931818,2.82352941 Z" fill="#000000"></path>
                        <path d="M20.2204545,2.82352941 C20.925,3.03529412 21.4886364,3.03529412 22.1227273,2.82352941 L20.7136364,3.67058824 L20.2204545,2.82352941 Z" fill="#000000"></path>
                        <path d="M21.2068182,3.45882353 L27.4772727,18.7764706 C27.125,19.2 26.9136364,19.4117647 26.5613636,19.5529412 C24.7295455,14.8941176 22.8272727,10.2352941 21.1363636,5.64705882 L20.2909091,4.23529412 L21.2068182,3.45882353 Z" fill="#000000"></path>
                        <path d="M15.8522727,19.5529412 L14.0204545,18.9176471 L20.5022727,3.67058824 L21.2068182,3.45882353 L21.2068182,5.71764706 C20.2204545,8.61176471 17.6840909,15.0352941 15.8522727,19.5529412 Z" fill="#000000"></path>
                        <path d="M14.3022727,0.635294118 L14.9363636,2.04705882 L16.4863636,1.34117647 L17.1204545,0.705882353 C16.1340909,0.847058824 15.2181818,0.847058824 14.3022727,0.635294118 Z" fill="#000000"></path>
                        <path d="M9.93409091,12.7764706 L8.87727273,13.2 L8.24318182,12 L14.8659091,1.41176471 L15.3590909,1.27058824 C15.9931818,1.12941176 16.6977273,0.988235294 17.1909091,0.635294118 C16.0636364,2.04705882 12.2590909,8.68235294 9.93409091,12.7764706 Z" fill="#000000"></path>
                        <path d="M8.525,12.6352941 L8.80681818,12.3529412 L15.3590909,1.27058824 L14.3727273,0.635294118 C13.5977273,2.11764706 10.6386364,6.84705882 8.80681818,9.95294118 L7.89090909,11.6470588 L8.525,12.6352941 Z" fill="#000000"></path>
                        <path d="M3.24090909,0.635294118 C4.72045455,3.17647059 6.90454545,6.84705882 8.80681818,9.95294118 L8.80681818,12.3529412 L8.38409091,12.7764706 L1.90227273,1.2 L3.24090909,0.635294118 Z" fill="#000000"></path>
                        <path d="M2.18409091,1.34117647 L3.24090909,0.635294118 C2.11363636,0.847058824 1.62045455,0.917647059 0.493181818,0.635294118 L0.915909091,1.12941176 L2.18409091,1.34117647 Z" fill="#000000"></path>
                        <path d="M8.80681818,12.3529412 L8.31363636,13.0588235 L7.67954545,12.7764706 C6.41136364,10.6588235 2.81818182,4.09411765 0.493181818,0.635294118 C0.986363636,0.988235294 1.55,1.12941176 2.325,1.27058824 L8.80681818,12.3529412 Z" fill="#000000"></path>
                        <polygon fill="#000000" points="10.1454545 21.7411765 8.24318182 20.8235294 8.38409091 12.9176471 8.80681818 12.2823529 10.0045455 12.7058824"></polygon>
                        <polygon fill="#000000" points="8.80681818 21.1058824 7.46818182 21.7411765 7.60909091 12.7764706 8.80681818 12.3529412"></polygon>
                        <path d="M13.1045455,19.5529412 C15.4295455,14.8235294 17.9659091,8.47058824 20.2204545,2.82352941 L21.2068182,3.38823529 L14.8659091,18.9176471 L13.5977273,19.3411765 L13.1045455,19.5529412 Z" fill="#000000"></path>
                        <path d="M27.4068182,18.7058824 L29.3795455,19.5529412 C28.6045455,19.3411765 27.6181818,19.2705882 26.6318182,19.5529412 L26.9840909,18.6352941 L27.4068182,18.7058824 Z" fill="#200045"></path>
                        <path d="M16.9090909,14.1176471 L18.2477273,13.5529412 C20.2204545,13.6235294 22.1931818,13.6235294 24.1659091,13.5529412 L25.575,14.1882353 L24.3068182,14.4705882 L17.8954545,14.4705882 L16.9090909,14.1176471 Z" fill="#000000"></path>
                        <path d="M17.825,14.6823529 L16.9090909,14.1176471 C19.7977273,14.0470588 22.6863636,14.0470588 25.575,14.1176471 L24.6590909,14.6823529 C22.3340909,14.6117647 20.0795455,14.6117647 17.825,14.6823529 Z" fill="#200045"></path>
                        <path d="M33.1136364,19.5529412 L31.1409091,18.9176471 L31.1409091,3.95294118 L31.7045455,3.67058824 L33.1136364,2.89411765 C32.8318182,8.4 32.8318182,13.9764706 33.1136364,19.5529412 Z" fill="#000000"></path>
                        <path d="M31.7045455,18.7764706 L31.7045455,19.2 L30.2954545,19.6235294 C30.5068182,14.0470588 30.5068182,8.47058824 30.2954545,2.89411765 L31.7045455,3.67058824 L31.7045455,18.7764706 Z" fill="#000000"></path>
                        <path d="M41.9909091,19.5529412 L43.9636364,18.9176471 L43.9636364,3.95294118 L43.4,3.67058824 L41.9909091,2.89411765 C42.2727273,8.4 42.2727273,13.9764706 41.9909091,19.5529412 Z" fill="#000000"></path>
                        <path d="M31.7045455,11.1529412 L32.9022727,10.6588235 C36.0022727,10.7294118 39.1022727,10.7294118 42.2022727,10.6588235 L43.4,11.1529412 L41.9204545,11.5058824 L32.9022727,11.5058824 L31.7045455,11.1529412 Z" fill="#000000"></path>
                    </g>
                    <path d="M54.6022727,2.82352941 C49.1772727,2.82352941 46.4295455,6.21176471 46.4295455,11.2235294 C46.4295455,17.4352941 50.5159091,19.6235294 54.5318182,19.6235294 C59.2522727,19.6235294 62.6340909,16.9411765 62.6340909,11.2235294 C62.6340909,5.78823529 59.4636364,2.82352941 54.6022727,2.82352941 Z M54.3909091,3.67058824 C54.4613636,3.67058824 54.4613636,3.67058824 54.5318182,3.67058824 C58.125,3.67058824 60.8022727,6.14117647 60.8022727,11.2941176 C60.8022727,16.4470588 58.125,18.9176471 54.5318182,18.9176471 C50.5863636,18.9176471 48.2613636,16.0941176 48.2613636,11.3647059 C48.3318182,5.85882353 51.2204545,3.74117647 54.3909091,3.67058824 Z" id="Shape" fill="#000000"></path>
                    <path d="M54.6022727,2.61176471 C48.6840909,2.61176471 45.5840909,6.35294118 45.5840909,11.2235294 C45.5840909,16.5176471 48.9659091,19.7647059 54.5318182,19.7647059 C60.5909091,19.7647059 63.55,16.0941176 63.55,11.2941176 C63.55,5.85882353 60.0272727,2.61176471 54.6022727,2.61176471 Z M54.6022727,3.17647059 C59.2522727,3.17647059 62.3522727,6 62.3522727,11.2235294 C62.3522727,16.6588235 59.1113636,19.2705882 54.5318182,19.2705882 C50.7272727,19.2705882 46.7113636,17.2235294 46.7113636,11.2235294 C46.7113636,6.49411765 49.3181818,3.17647059 54.6022727,3.17647059 Z" id="Shape" fill="#000000"></path>
                    <path d="M74.9636364,1.97647059 C69.3977273,1.97647059 65.6636364,5.08235294 65.6636364,11.2235294 C65.6636364,17.2235294 69.1863636,20.5411765 75.0340909,20.5411765 C79.4727273,20.5411765 84.2636364,18.2823529 84.2636364,11.2941176 C84.1931818,3.81176471 78.9090909,1.97647059 74.9636364,1.97647059 Z M74.8931818,2.68235294 C79.3318182,2.68235294 82.5727273,5.36470588 82.5727273,11.2941176 C82.5727273,17.7176471 78.6272727,19.8352941 74.8931818,19.8352941 C70.9477273,19.8352941 67.2840909,17.5058824 67.2840909,11.2235294 C67.3545455,4.58823529 71.3704545,2.68235294 74.8931818,2.68235294 Z" id="Shape" fill="#000000"></path>
                    <path d="M74.8931818,1.62352941 C69.0454545,1.62352941 64.5363636,4.94117647 64.5363636,11.1529412 C64.5363636,16.2352941 67.4954545,20.7529412 74.9636364,20.7529412 C81.2340909,20.7529412 85.3204545,17.2941176 85.3204545,11.2235294 C85.3204545,5.57647059 81.5159091,1.62352941 74.8931818,1.62352941 Z M74.9636364,2.25882353 C78.8386364,2.25882353 83.9818182,4.02352941 83.9818182,11.3647059 C83.9818182,18.1411765 79.2613636,20.4 74.9636364,20.4 C69.3272727,20.4 65.875,17.1529412 65.875,11.2941176 C65.875,5.29411765 69.5386364,2.25882353 74.9636364,2.25882353 Z" id="Shape" fill="#000000"></path>
                    <path d="M85.8136364,20.5411765 C85.8136364,19.8352941 86.2363636,19.1294118 87.1522727,19.1294118 C87.9977273,19.1294118 88.6318182,19.6235294 88.6318182,20.4 C88.6318182,21.3882353 87.9977273,21.7411765 87.3636364,21.7411765 C86.4477273,21.8117647 85.8136364,21.3882353 85.8136364,20.5411765 Z" id="Shape" fill="#000000"></path>
                    <path d="M87.2227273,17.0823529 C87.9272727,12.2823529 88.2795455,7.27058824 88.7022727,2.18823529 C88.7022727,1.2 89.3363636,0.776470588 90.0409091,0.776470588 C90.1818182,0.776470588 90.3227273,0.776470588 90.3227273,0.776470588 L90.1113636,1.97647059 L87.7159091,16.8705882 L87.2227273,17.0823529 Z" id="Shape" fill="#000000"></path>
                    <g transform="translate(7.045455, 10.588235)" fill="#000000" id="Shape">
                        <path d="M0.422727273,11.1529412 L1.76136364,10.1647059 L3.1,11.1529412 C3.1,11.1529412 2.39545455,11.0117647 1.76136364,11.0117647 C1.19772727,11.0117647 0.422727273,11.1529412 0.422727273,11.1529412 Z"></path>
                        <path d="M6.05909091,8.96470588 L7.89090909,8.18823529 C8.17272727,8.54117647 8.45454545,8.82352941 8.80681818,8.96470588 C8.17272727,8.82352941 7.11590909,8.68235294 6.05909091,8.96470588 Z"></path>
                        <path d="M23.3204545,8.96470588 C24.2363636,8.75294118 25.1522727,8.75294118 26.0681818,8.96470588 L24.6590909,8.18823529 L23.3204545,8.96470588 Z"></path>
                        <path d="M25.8568182,1.2 L24.6590909,0.564705882 C28.5340909,0.635294118 32.4090909,0.635294118 36.2840909,0.564705882 L35.0863636,1.2 C32.0568182,1.12941176 28.9568182,1.2 25.8568182,1.2 Z"></path>
                    </g>
                    <g transform="translate(41.568182, 0.705882)" fill="#4A4A4A">
                        <path d="M1.83181818,18.0705882 L1.83181818,18.4941176 L3.24090909,18.9176471 C3.02954545,13.3411765 3.02954545,7.76470588 3.24090909,2.18823529 L1.83181818,2.96470588 L1.83181818,18.0705882 Z" id="Shape"></path>
                        <path d="M3.24090909,18.8470588 C2.325,18.6352941 1.40909091,18.6352941 0.493181818,18.8470588 L1.90227273,18.0705882 L3.24090909,18.8470588 Z" id="Shape"></path>
                        <path d="M46.2181818,15.8823529 L45.5840909,16.4470588 C46.0068182,16.3764706 46.2886364,16.4470588 46.6409091,16.5882353 L46.2181818,15.8823529 Z" id="Shape"></path>
                        <ellipse id="Oval" cx="48.4727273" cy="1.34117647" rx="1.33863636" ry="1.2"></ellipse>
                    </g>
                </g>
            </g>
            <g id="Group" transform="translate(26.000000, 25.000000)" fill="#4E4E63">
                <polygon id="Shape" fill-rule="nonzero" style="mix-blend-mode: saturation;" points="4.66551724 0.7 4.66551724 1.26 1.83793103 1.26 1.83793103 3.22 4.38275862 3.22 4.38275862 3.78 1.83793103 3.78 1.83793103 6.72 0.282758621 6.72 0.282758621 0.7 4.66551724 0.7"></polygon>
                <polygon id="Shape" fill-rule="nonzero" style="mix-blend-mode: saturation;" points="6.07931034 0.7 7.63448276 0.7 7.63448276 6.72 6.07931034 6.72"></polygon>
                <polygon id="Shape" fill-rule="nonzero" style="mix-blend-mode: saturation;" points="9.04827586 0.7 9.89655172 0.7 13.4310345 4.48 13.4310345 0.7 14.4206897 0.7 14.4206897 6.86 13.7137931 6.86 9.89655172 2.66 9.89655172 6.86 8.90689655 6.86 8.90689655 0.7"></polygon>
                <path d="M18.9448276,0.56 L21.7724138,6.72 L20.2172414,6.72 L19.5103448,5.04 L17.1068966,5.04 L16.2586207,6.72 L15.2689655,6.72 L18.237931,0.56 L18.9448276,0.56 Z M17.3896552,4.48 L19.2275862,4.48 L18.3793103,2.52 L17.3896552,4.48 Z" id="Shape" fill-rule="nonzero" style="mix-blend-mode: saturation;"></path>
                <polygon id="Shape" fill-rule="nonzero" style="mix-blend-mode: saturation;" points="22.4793103 0.7 23.4689655 0.7 27.0034483 4.48 27.0034483 0.7 27.9931034 0.7 27.9931034 6.86 27.2862069 6.86 23.4689655 2.66 23.4689655 6.86 22.4793103 6.86"></polygon>
                <polygon id="Shape" fill-rule="nonzero" style="mix-blend-mode: saturation;" points="40.1517241 0.7 40.1517241 1.26 37.0413793 1.26 37.0413793 3.22 39.5862069 3.22 39.5862069 3.78 37.0413793 3.78 37.0413793 6.16 40.1517241 6.16 40.1517241 6.72 35.6275862 6.72 35.6275862 0.7 40.1517241 0.7"></polygon>
                <path d="M34.3586296,6.47945958 C33.8370216,6.73315455 33.2147405,6.86000013 32.4917676,6.86000013 C31.6086732,6.86000013 30.9208889,6.58913197 30.4283939,6.0473875 C29.935899,5.50564304 29.6896552,4.74985479 29.6896552,3.78000007 C29.6896552,2.79164676 29.9377185,2.03123392 30.4338526,1.49873876 C30.9299867,0.96624359 31.6377859,0.7 32.5572716,0.7 C33.1443838,0.7 33.7278481,0.775314564 34.3076821,0.925945951 L34.3076821,1.88126129 C33.6502134,1.63020898 33.0995007,1.5046847 32.6555274,1.5046847 C32.0878239,1.5046847 31.6499224,1.70089896 31.3418098,2.09333336 C31.0336972,2.48576777 30.8796432,3.04269915 30.8796432,3.76414421 C30.8796432,4.472376 31.0452209,5.0246828 31.3763813,5.42108118 C31.7075417,5.81747957 32.1678842,6.01567579 32.7574224,6.01567579 C33.2863087,6.01567579 33.820039,5.8703319 34.3586296,5.57963975 L34.3586296,6.47945958 Z" id="C" style="mix-blend-mode: saturation;"></path>
            </g>
        </g>
    </g>
</svg>