<?xml version="1.0" encoding="utf-8"?>
<!-- Generator: Adobe Illustrator 21.0.2, SVG Export Plug-In . SVG Version: 6.00 Build 0)  -->
<svg version="1.1" id="Layer_1" xmlns="http://www.w3.org/2000/svg" xmlns:xlink="http://www.w3.org/1999/xlink" x="0px" y="0px"
	 viewBox="0 0 45.9 38" style="enable-background:new 0 0 45.9 38;" xml:space="preserve">
<style type="text/css">
	.st0{fill:#0067F5;}
</style>
<title>profile_setup</title>
<g id="Layer_2">
	<g id="Layer_2-2">
		<path class="st0" d="M5.2,0C3.8,0,2.6,1.2,2.6,2.6h1.3c0-0.7,0.6-1.3,1.3-1.3c0,0,0,0,0,0h35.4c0.7,0,1.3,0.6,1.3,1.3c0,0,0,0,0,0
			h1.3c0-1.4-1.2-2.6-2.6-2.6H5.2z M2.6,3.9C1.2,3.9,0,5.1,0,6.6v28.8C0,36.8,1.2,38,2.6,38h40.6c1.4,0,2.6-1.2,2.6-2.6V6.6
			c0-1.4-1.2-2.6-2.6-2.6L2.6,3.9z M2.6,5.2h40.6c0.7,0,1.3,0.6,1.3,1.3c0,0,0,0,0,0v28.8c0,0.7-0.6,1.3-1.3,1.3c0,0,0,0,0,0H36
			v-1.5c0.6-0.4,0.8-1.2,0.5-1.8s-1.2-0.8-1.8-0.5s-0.8,1.2-0.5,1.8c0.1,0.2,0.3,0.4,0.5,0.5v1.5H11.1v-1.5c0.6-0.4,0.8-1.2,0.5-1.8
			s-1.2-0.8-1.8-0.5S9,34.1,9.4,34.7c0.1,0.2,0.3,0.4,0.5,0.5v1.5H2.6c-0.7,0-1.3-0.6-1.3-1.3c0,0,0,0,0,0V6.6
			C1.3,5.8,1.9,5.2,2.6,5.2C2.6,5.2,2.6,5.2,2.6,5.2z M11.8,13.8c-2.2,0-3.9,1.8-3.9,3.9c0,1.2,0.6,2.4,1.6,3.2
			c-1.8,0.9-2.9,2.7-2.9,4.7h1.3c0-2.2,1.8-3.9,3.9-3.9s3.9,1.8,3.9,3.9H17c0-2-1.1-3.8-2.9-4.7c1.8-1.3,2.1-3.7,0.8-5.5
			C14.2,14.4,13,13.8,11.8,13.8L11.8,13.8z M11.8,15.1c1.4,0,2.6,1.2,2.6,2.6c0,1.4-1.2,2.6-2.6,2.6s-2.6-1.2-2.6-2.6c0,0,0,0,0,0
			C9.2,16.2,10.3,15.1,11.8,15.1C11.8,15.1,11.8,15.1,11.8,15.1z M22.3,15.1v1.3h17v-1.3H22.3z M22.3,19v1.3h14.4V19H22.3z
			 M22.3,22.9v1.3h17v-1.3H22.3z M4.6,33.4c-0.4,0-0.7,0.3-0.7,0.7c0,0.4,0.3,0.7,0.7,0.7c0.4,0,0.7-0.3,0.7-0.7l0,0
			C5.3,33.7,5,33.4,4.6,33.4z M7.2,33.4c-0.4,0-0.7,0.3-0.7,0.7s0.3,0.7,0.7,0.7c0.4,0,0.7-0.3,0.7-0.7l0,0
			C7.9,33.7,7.6,33.4,7.2,33.4z M13.8,33.4c-0.4,0-0.7,0.3-0.7,0.7s0.3,0.7,0.7,0.7c0.4,0,0.7-0.3,0.7-0.7l0,0
			C14.4,33.7,14.1,33.4,13.8,33.4z M16.4,33.4c-0.4,0-0.7,0.3-0.7,0.7s0.3,0.7,0.7,0.7s0.7-0.3,0.7-0.7l0,0
			C17,33.7,16.7,33.4,16.4,33.4C16.4,33.4,16.4,33.4,16.4,33.4z M19,33.4c-0.4,0-0.7,0.3-0.7,0.7s0.3,0.7,0.7,0.7s0.7-0.3,0.7-0.7
			l0,0C19.7,33.7,19.4,33.4,19,33.4z M21.6,33.4c-0.4,0-0.7,0.3-0.7,0.7s0.3,0.7,0.7,0.7s0.7-0.3,0.7-0.7l0,0
			C22.3,33.7,22,33.4,21.6,33.4z M24.2,33.4c-0.4,0-0.7,0.3-0.7,0.7s0.3,0.7,0.7,0.7s0.7-0.3,0.7-0.7l0,0
			C24.9,33.7,24.6,33.4,24.2,33.4z M26.9,33.4c-0.4,0-0.7,0.3-0.7,0.7s0.3,0.7,0.7,0.7s0.7-0.3,0.7-0.7l0,0
			C27.5,33.7,27.2,33.4,26.9,33.4z M29.5,33.4c-0.4,0-0.7,0.3-0.7,0.7s0.3,0.7,0.7,0.7s0.7-0.3,0.7-0.7l0,0
			C30.1,33.7,29.8,33.4,29.5,33.4z M32.1,33.4c-0.4,0-0.7,0.3-0.7,0.7s0.3,0.7,0.7,0.7c0.4,0,0.7-0.3,0.7-0.7l0,0
			C32.8,33.7,32.5,33.4,32.1,33.4z M38.6,33.4c-0.4,0-0.7,0.3-0.7,0.7s0.3,0.7,0.7,0.7c0.4,0,0.7-0.3,0.7-0.7l0,0
			C39.3,33.7,39,33.4,38.6,33.4L38.6,33.4z M41.3,33.4c-0.4,0-0.7,0.3-0.7,0.7s0.3,0.7,0.7,0.7c0.4,0,0.7-0.3,0.7-0.7l0,0
			C41.9,33.7,41.6,33.4,41.3,33.4L41.3,33.4z"/>
	</g>
</g>
</svg>
